<svg width="40" height="40" viewBox="0 0 40 40" fill="none" xmlns="http://www.w3.org/2000/svg">
<path fill-rule="evenodd" clip-rule="evenodd" d="M20.0013 3.77771L2.66797 36.2222H37.3346L20.0013 3.77771Z" fill="#D6001C"/>
<path fill-rule="evenodd" clip-rule="evenodd" d="M19.9994 0.450439L39.948 37.7901H0.0507812L19.9994 0.450439ZM5.28129 34.6543H34.7174L19.9994 7.1051L5.28129 34.6543Z" fill="black"/>
<path d="M26.2222 22.5556C26.2222 23.4445 26.1111 24.2223 25.8889 25.1112C25.2222 22.3334 23.3333 20.0001 23.3333 20.0001C23.1111 24.3334 20.7778 24.7778 20.7778 24.7778C20.7778 24.7778 21.5555 23.5556 21.5555 21.2223C21.6667 18.5556 19.3333 16.7778 19.3333 16.7778L18.6667 19.1112C18.4444 19.8889 17.7778 20.5556 17.1111 21.3334C16.7778 20.3334 16.1111 19.3334 15.2222 18.7778C15.2222 18.7778 15.5555 19.0001 15.5555 20.4445C15.5555 21.8889 13.1111 23.3334 12.8889 26.0001C12.6667 29.5556 16.2222 31.5556 17.2222 32.1112C17.6667 32.5556 18.2222 32.8889 18.6667 33.2223C17.6667 30.5556 17.7778 29.2223 18.5555 28.0001C19.3333 26.7778 20.8889 26.3334 20.8889 26.3334C19.2222 28.8889 22 29.2223 21.6667 33.1112C22.1111 33.0001 22.5555 32.7778 23 32.4445C24.1111 31.8889 26.3333 30.5556 27 27.6667C27.8889 23.8889 26.2222 22.5556 26.2222 22.5556Z" fill="white"/>
</svg>
