<svg width="40" height="40" viewBox="0 0 40 40" fill="none" xmlns="http://www.w3.org/2000/svg">
<path fill-rule="evenodd" clip-rule="evenodd" d="M19.9993 3.77798L2.66602 36.2224H37.3327L19.9993 3.77798Z" fill="#FBE032" stroke="black" stroke-width="3.13578" stroke-miterlimit="2.8222"/>
<path d="M13.3355 25.6667C13.1133 28.7778 16.2244 30.5556 17.0022 31C17.8911 31.7778 18.2244 32 18.2244 32C17.3355 29.6667 17.5578 29 18.2244 28C18.5578 27.3333 19.1133 26.8889 19.8911 26.6667C18.4467 28.8889 21.1133 28.5556 20.8911 32C21.3355 31.8889 21.6689 31.6667 22.0022 31.4444C23.0022 31 24.8911 29.7778 25.4467 27.3333C26.1133 23.8889 23.2244 22.2222 23.2244 22.2222C23.2244 22.2222 20.0022 23.4444 21.0022 22" fill="black"/>
<path d="M23.3346 22.1107C23.8902 22.6662 23.3346 22.9996 23.4458 23.7774C23.5569 24.5551 23.5569 25.2218 23.4458 25.9996C23.3346 26.8885 23.1124 27.6662 22.5569 28.3329C22.0013 29.1107 20.0013 25.9996 19.0013 26.2218" fill="black"/>
<path d="M13.7798 27.8884C13.3354 26.9995 12.8909 24.9995 13.1132 24.1106C13.3354 23.1106 13.7798 22.2217 14.4465 21.555C14.4465 22.2217 14.6687 22.8884 15.1132 23.4439C14.7798 22.2217 15.8909 20.6661 16.7798 19.6661C17.6687 18.6661 19.1132 17.9995 20.4465 17.555C19.7798 18.6661 19.6687 19.8884 20.4465 21.1106C21.1132 22.1106 21.8909 21.6661 22.5576 21.3328C22.7798 21.1106 23.002 20.9995 23.3354 20.8884C23.4465 20.8884 23.5576 21.2217 23.5576 21.2217C23.8909 21.6661 23.5576 21.3328 23.7798 21.555C24.4465 22.4439 25.4465 24.2217 25.4465 25.4439" fill="black"/>
</svg>
