<svg width="40" height="40" viewBox="0 0 40 40" fill="none" xmlns="http://www.w3.org/2000/svg">
<g clip-path="url(#clip0_6_45810)">
<path d="M19.998 1.78636L1.77051 20.0138L19.998 38.2413L38.2254 20.0138L19.998 1.78636Z" fill="white" stroke="black" stroke-width="2.00622" stroke-miterlimit="2.257"/>
<path d="M13.7769 19.7337C13.7769 19.7337 11.4658 30.3115 22.4881 31.2893C18.3103 30.2226 18.1325 28.0893 19.1992 25.2448C19.2881 24.8893 13.7769 19.7337 13.7769 19.7337Z" fill="black"/>
<path d="M26.1329 20.9782C26.1329 20.9782 28.7995 10.0448 17.8662 8.80038C21.9551 9.95594 22.1329 12.0893 20.8884 14.9337C20.7995 15.2004 26.1329 20.9782 26.1329 20.9782Z" fill="black"/>
<path d="M19.4658 13.9559C22.8436 13.6004 25.8658 16.1782 26.2214 19.5559C26.5769 22.9337 23.9992 25.9559 20.6214 26.3115C17.2436 26.6671 14.2214 24.0893 13.8658 20.7115C13.5103 17.3337 15.9992 14.2226 19.4658 13.9559ZM20.1769 21.9559C21.2436 21.8671 22.0436 20.8893 21.9547 19.8226C21.8658 18.7559 20.8881 17.9559 19.8214 18.0448C18.7547 18.1337 17.9547 19.1115 18.0436 20.1782C18.1325 21.3337 19.1103 22.0448 20.1769 21.9559Z" fill="black"/>
</g>
<defs>
<clipPath id="clip0_6_45810">
<rect width="40" height="40" fill="white"/>
</clipPath>
</defs>
</svg>
