<svg width="40" height="40" viewBox="0 0 40 40" fill="none" xmlns="http://www.w3.org/2000/svg">
<path fill-rule="evenodd" clip-rule="evenodd" d="M19.9398 4.77795L2.60645 37.4446H37.2731L19.9398 4.77795Z" fill="#D6001C"/>
<path fill-rule="evenodd" clip-rule="evenodd" d="M19.9402 1.43286L39.8804 39.0125H0L19.9402 1.43286ZM19.9402 8.12301L5.21376 35.8767H34.6667L19.9402 8.12301Z" fill="black"/>
<path d="M18.7154 22.6667C18.7154 22.6667 10.6043 25.0001 13.9376 32.5556C13.1599 29.4445 14.4932 28.6667 16.8265 28.2223C16.9376 28.2223 18.7154 22.6667 18.7154 22.6667Z" fill="white"/>
<path d="M17.1602 30.2223C17.1602 30.2223 23.2713 36.0001 28.1602 29.4445C25.9379 31.6668 24.4935 31.0001 23.049 29.1112C22.9379 29.1112 17.1602 30.2223 17.1602 30.2223Z" fill="white"/>
<path d="M24.7154 27.6667C24.7154 27.6667 26.7154 19.5556 18.4932 18.6667C21.6043 19.4445 21.6043 21.1112 20.7154 23.3334C20.6043 23.2223 24.7154 27.6667 24.7154 27.6667Z" fill="white"/>
<path d="M19.827 22.3335C22.2714 22.1112 24.6048 24.0001 24.827 26.4446C25.0492 28.889 23.1603 31.2223 20.7159 31.4446C18.2714 31.6668 15.9381 29.7779 15.7159 27.3335C15.3825 24.7779 17.1603 22.6668 19.827 22.3335ZM20.2714 28.3335C21.0492 28.2223 21.7159 27.5557 21.6048 26.7779C21.4937 26.0001 20.827 25.3335 20.0492 25.4446C19.3825 25.4446 18.7159 26.1112 18.7159 27.0001C18.827 27.7779 19.6048 28.3335 20.2714 28.3335Z" fill="white"/>
</svg>
