<svg width="40" height="40" viewBox="0 0 40 40" fill="none" xmlns="http://www.w3.org/2000/svg">
<path fill-rule="evenodd" clip-rule="evenodd" d="M19.9398 4.77783L2.60645 37.4445H37.2731L19.9398 4.77783Z" fill="#FF7900"/>
<path fill-rule="evenodd" clip-rule="evenodd" d="M19.9402 1.43274L39.8804 39.0124H0L19.9402 1.43274ZM19.9402 8.12289L5.21376 35.8766H34.6667L19.9402 8.12289Z" fill="black"/>
<path d="M24.1644 27.8889C24.1644 27.8889 27.7199 20.2223 19.8311 17.7778C22.7199 19.2223 22.3866 20.7778 21.2755 22.7778C21.0533 23.0001 24.1644 27.8889 24.1644 27.8889Z" fill="black"/>
<path d="M15.6093 26.1112C15.6093 26.1112 15.276 34.5556 23.3871 33.889C20.276 33.6668 19.8316 32.1112 20.276 29.7779C20.276 29.6668 15.6093 26.1112 15.6093 26.1112Z" fill="black"/>
<path d="M23.2745 23C25.0523 24.6667 25.1634 27.6667 23.4967 29.4445C21.8301 31.2222 18.8301 31.3334 17.0523 29.6667C15.2745 28 15.1634 25 16.8301 23.2222C18.4967 21.2222 21.2745 21.2222 23.2745 23ZM19.0523 27.2222C19.6078 27.7778 20.6078 27.7778 21.0523 27.2222C21.6078 26.6667 21.6078 25.6667 21.0523 25.2222C20.6078 24.6667 19.719 24.6667 19.0523 25.2222C18.4967 25.7778 18.6078 26.7778 19.0523 27.2222Z" fill="black"/>
</svg>
