<svg width="40" height="40" viewBox="0 0 40 40" fill="none" xmlns="http://www.w3.org/2000/svg">
<g clip-path="url(#clip0_6_34883)">
<path d="M20.0847 1.47457L1.46436 20.0949L20.0847 38.7152L38.705 20.0949L20.0847 1.47457Z" fill="white" stroke="black" stroke-width="2.00622" stroke-miterlimit="1.8056"/>
<path d="M20.0847 1.47551L1.46436 20.0958L20.0847 38.7161L38.705 20.0958L20.0847 1.47551Z" stroke="black" stroke-width="2.00622" stroke-miterlimit="1.8056"/>
<mask id="mask0_6_34883" style="mask-type:luminance" maskUnits="userSpaceOnUse" x="1" y="2" width="38" height="38">
<path d="M1.88916 20.2232L19.8892 2.3343L38.0003 20.1121L20.2225 39.001L1.88916 20.2232Z" fill="white"/>
</mask>
<g mask="url(#mask0_6_34883)">
<path d="M26.7783 18.4451H13.0005V25.6673H26.7783V18.4451Z" fill="black"/>
<path d="M9.77832 18.7784L19.7783 10.4451L29.5561 18.7784H9.77832Z" fill="black"/>
<path d="M15.5562 11.8891H13.334V16.2224H15.5562V11.8891Z" fill="black"/>
<path d="M21.6669 19.2229H17.8892V23.4451H21.6669V19.2229Z" fill="white"/>
<path d="M40.556 30.4448H1.22266V37.2226H40.556V30.4448Z" fill="black"/>
<path d="M3.22249 32.5563C2.88916 32.5563 2.44472 32.4452 2.00027 32.3341L-0.666396 31.223L-3.11084 32.0008L-4.11084 29.4452L-1.44417 28.6675C-0.777507 28.4452 0.000270844 28.5563 0.555826 28.7786L3.22249 29.8897L6.00027 28.8897C6.66694 28.6675 7.22249 28.6675 7.88916 28.8897L10.6669 29.7786C10.6669 29.7786 10.6669 29.7786 10.778 29.7786L13.1114 29.0008C13.778 28.8897 14.4447 28.8897 15.1114 28.8897L19.1114 29.8897L15.3336 31.6675L14.4447 31.4452H14.2225L11.8892 32.3341C11.2225 32.5563 10.6669 32.5563 10.0003 32.3341L7.22249 31.4452C7.22249 31.4452 7.22249 31.4452 7.11138 31.4452L4.3336 32.4452C3.88916 32.5564 3.66694 32.5563 3.22249 32.5563Z" fill="black"/>
<path d="M27.778 32.5563C27.4447 32.5563 27.0002 32.4452 26.5558 32.3341L23.8891 31.1119L22.4447 31.5563L19.1113 29.7786L23.1113 28.5563C23.778 28.3341 24.5558 28.4452 25.1113 28.6675L27.778 29.7786L30.5558 28.7786C31.2224 28.5563 31.778 28.5563 32.4447 28.7786L35.2224 29.6675C35.2224 29.6675 35.2224 29.6675 35.3335 29.6675L37.6669 28.8897C38.3336 28.6675 38.8891 28.6675 39.5558 28.7786L42.2224 29.4452L41.4447 32.0008L38.8891 31.3341H38.6669L36.3336 32.223C35.6669 32.4452 35.1113 32.4452 34.4447 32.223L31.6669 31.3341C31.6669 31.3341 31.6669 31.3341 31.5558 31.3341L28.778 32.3341C28.3335 32.5563 28.1113 32.5563 27.778 32.5563Z" fill="black"/>
<path d="M22.5557 31.6679L20.1113 32.5568C19.4446 32.779 18.8891 32.779 18.2224 32.5568L15.4446 31.6679C15.4446 31.6679 15.4446 31.6679 15.3335 31.6679" fill="black"/>
<path d="M19.1113 29.8897L22.4446 31.6675H15.3335L19.1113 29.8897Z" fill="black"/>
<path d="M4.5561 30.4449C4.22276 30.4449 3.77832 30.3338 3.44499 30.2227L1.00054 29.1115L-1.33279 30.0004L-2.22168 27.4449L0.222765 26.6671C0.778321 26.4449 1.5561 26.556 2.11165 26.7782L4.5561 27.8893L7.11165 26.8893C7.66721 26.6671 8.33388 26.6671 8.88943 26.8893L11.6672 27.7782C11.6672 27.7782 11.6672 27.7782 11.7783 27.7782L14.0005 27.0004C14.5561 26.7782 15.2228 26.7782 15.7783 26.8893L19.5561 27.7782L16.0005 29.6671L15.1117 29.4449H15.0005L12.7783 30.3338C12.2228 30.556 11.5561 30.556 11.0005 30.3338L8.22276 29.4449C8.22276 29.4449 8.22277 29.4449 8.11165 29.4449L5.33388 30.4449C5.11165 30.4449 4.88943 30.4449 4.5561 30.4449Z" fill="white"/>
<path d="M27.667 30.4453C27.3337 30.4453 26.8893 30.3342 26.5559 30.2231L24.0004 29.112L22.2226 29.7786L19.4448 27.7786L23.1115 26.5564C23.667 26.3342 24.4448 26.4453 25.0004 26.6675L27.4448 27.7786L30.0004 26.7786C30.5559 26.5564 31.2226 26.5564 31.7782 26.7786L34.5559 27.6675C34.5559 27.6675 34.5559 27.6675 34.667 27.6675L36.8893 26.8898C37.4448 26.6675 38.1115 26.6675 38.667 26.7786L41.1115 27.4453L40.3337 30.0009L38.0004 29.3342H37.7782L35.5559 30.2231C35.0004 30.4453 34.3337 30.4453 33.7782 30.2231L31.1115 29.3342C31.1115 29.3342 31.1115 29.3342 31.0004 29.3342L28.2226 30.3342C28.1115 30.4453 27.8893 30.4453 27.667 30.4453Z" fill="white"/>
<path d="M23.0003 29.4453L22.4448 29.6675L20.3337 30.4453C19.7781 30.6675 19.1114 30.6675 18.5559 30.4453L15.7781 29.5564C15.7781 29.5564 15.7781 29.5564 15.667 29.5564" fill="white"/>
<path d="M19.5563 27.7786L22.6674 29.5564H15.8896L19.5563 27.7786Z" fill="white"/>
<path d="M3.22249 27.7779C2.88916 27.7779 2.44472 27.6668 2.00027 27.5557L-0.666396 26.4446L-3.11084 27.2224L-4.11084 24.6668L-1.44417 23.889C-0.777507 23.6668 0.000270844 23.7779 0.555826 24.0001L3.22249 25.1113L6.00027 24.1113C6.66694 23.889 7.3336 23.889 8.00027 24.1113L10.778 25.0001C10.778 25.0001 10.778 25.0001 10.8892 25.0001L13.2225 24.2224C13.8892 24.0001 14.4447 24.0001 15.1114 24.1113L19.6669 25.4446L15.6669 27.1113L14.3336 26.6668H14.2225L11.8892 27.5557C11.2225 27.7779 10.6669 27.7779 10.0003 27.5557L7.11138 26.6668C7.11138 26.6668 7.11138 26.6668 7.00027 26.6668L4.22249 27.6668C3.88916 27.7779 3.66694 27.7779 3.22249 27.7779Z" fill="black"/>
<path d="M27.8893 28.0001C27.556 28.0001 27.1115 27.889 26.6671 27.7779L24.0004 26.6668L22.556 27.1113L19.2227 25.3335L23.2227 24.1113C23.8893 23.889 24.6671 24.0001 25.2227 24.2224L27.8893 25.3335L30.6671 24.3335C31.3338 24.1113 31.8893 24.1113 32.556 24.3335L35.3338 25.2224C35.3338 25.2224 35.3338 25.2224 35.4449 25.2224L37.7782 24.4446C38.4449 24.2224 39.0004 24.2224 39.6671 24.3335L42.3338 25.0001L41.556 27.5557L39.1115 26.889H39.0004L36.6671 27.7779C36.0004 28.0001 35.4449 28.0001 34.7782 27.7779L32.0004 26.889C32.0004 26.889 32.0004 26.889 31.8893 26.889L29.1115 27.889C28.4449 28.0001 28.3338 28.0001 27.8893 28.0001Z" fill="black"/>
<path d="M22.7782 27.1113L20.3337 28.0001C19.667 28.2224 19.1115 28.2224 18.4448 28.0001L15.5559 27.1113C15.5559 27.1113 15.5559 27.1113 15.4448 27.1113" fill="black"/>
<path d="M19.2228 25.3337L22.6673 27.1115H15.5562L19.2228 25.3337Z" fill="black"/>
</g>
<path d="M20.0847 1.47457L1.46436 20.0949L20.0847 38.7152L38.705 20.0949L20.0847 1.47457Z" stroke="black" stroke-width="2.00622" stroke-miterlimit="1.8056"/>
</g>
<defs>
<clipPath id="clip0_6_34883">
<rect width="40" height="40" fill="white"/>
</clipPath>
</defs>
</svg>
