<svg width="41" height="40" viewBox="0 0 41 40" fill="none" xmlns="http://www.w3.org/2000/svg">
<path fill-rule="evenodd" clip-rule="evenodd" d="M20.4385 4.77795L2.67188 37.4446H38.2052L20.4385 4.77795Z" fill="#FBE032"/>
<path fill-rule="evenodd" clip-rule="evenodd" d="M20.4387 1.43286L40.8774 39.0125H0L20.4387 1.43286ZM5.3441 35.8767H35.5333L20.4387 8.12301L5.3441 35.8767Z" fill="black"/>
<path d="M23.8557 27.8889C23.8557 27.8889 27.5002 20.2223 19.4141 17.7778C22.3752 19.2223 22.0335 20.7778 20.8946 22.7778C20.6668 23.0001 23.8557 27.8889 23.8557 27.8889Z" fill="black"/>
<path d="M15.083 26.1111C15.083 26.1111 14.7414 34.5555 23.0552 33.8889C19.8664 33.6666 19.4108 32.1111 19.8664 29.7778C19.8664 29.6666 15.083 26.1111 15.083 26.1111Z" fill="black"/>
<path d="M22.9447 23C24.7669 24.6667 24.8808 27.6667 23.1725 29.4445C21.4641 31.2222 18.3891 31.3334 16.5669 29.6667C14.7447 28 14.6308 25 16.3391 23.2222C18.0475 21.2222 20.8947 21.2222 22.9447 23ZM18.6169 27.2222C19.1864 27.7778 20.2114 27.7778 20.6669 27.2222C21.2364 26.6667 21.2364 25.6667 20.6669 25.2222C20.2114 24.6667 19.3003 24.6667 18.6169 25.2222C18.0475 25.7778 18.1614 26.7778 18.6169 27.2222Z" fill="black"/>
</svg>
