<svg width="40" height="40" viewBox="0 0 40 40" fill="none" xmlns="http://www.w3.org/2000/svg">
<g clip-path="url(#clip0_6724_24718)">
<path d="M20.0776 1.85122L1.92871 20.0001L20.0776 38.149L38.2265 20.0001L20.0776 1.85122Z" fill="white" stroke="black" stroke-width="2.50778" stroke-miterlimit="2.257"/>
<path d="M27.2219 15C25.9997 15 24.8886 15.6667 24.333 16.6667C24.1108 17 24.2219 17.4444 24.5552 17.5556C24.8886 17.7778 25.333 17.6667 25.4441 17.3333C25.7775 16.6667 26.4441 16.3333 27.1108 16.3333C28.2219 16.3333 28.9997 17.2222 28.9997 18.2222C28.9997 19.3333 28.1108 20.1111 27.1108 20.1111H9.33301V21.4444H27.2219C28.9997 21.4444 30.4441 20 30.4441 18.2222C30.4441 16.4444 28.9997 15 27.2219 15Z" fill="black"/>
<path d="M22.8886 16.3333C22.8886 14.5555 21.4441 13.1111 19.6663 13.1111C18.4441 13.1111 17.333 13.7778 16.7775 14.7778C16.5552 15.1111 16.6663 15.5555 16.9997 15.6666C17.333 15.8889 17.7775 15.7778 17.8886 15.4444C18.2219 14.7778 18.8886 14.4444 19.5552 14.4444C20.6663 14.4444 21.4441 15.3333 21.4441 16.3333C21.4441 17.4444 20.5552 18.2222 19.5552 18.2222H9.33301V19.5555H19.6663C21.4441 19.5555 22.8886 18.1111 22.8886 16.3333Z" fill="black"/>
<path d="M22.4441 22.1111H9.33301V23.4444H22.4441C23.5552 23.4444 24.333 24.3333 24.333 25.3333C24.333 26.4444 23.4441 27.2222 22.4441 27.2222C21.7775 27.2222 21.1108 26.8889 20.7775 26.2222C20.5552 25.8889 20.2219 25.7778 19.8886 26C19.5552 26.2222 19.4441 26.5555 19.6663 26.8889C20.2219 27.8889 21.333 28.5555 22.5552 28.5555C24.333 28.5555 25.7775 27.1111 25.7775 25.3333C25.7775 23.6666 24.333 22.1111 22.4441 22.1111Z" fill="black"/>
</g>
<defs>
<clipPath id="clip0_6724_24718">
<rect width="40" height="40" fill="white"/>
</clipPath>
</defs>
</svg>
