<svg width="40" height="40" viewBox="0 0 40 40" fill="none" xmlns="http://www.w3.org/2000/svg">
<path fill-rule="evenodd" clip-rule="evenodd" d="M20.0001 3.77783L2.66675 36.2223H37.3334L20.0001 3.77783Z" fill="#FBE032"/>
<path fill-rule="evenodd" clip-rule="evenodd" d="M20 0.451538L39.9478 37.7896H0.0522461L20 0.451538ZM5.28109 34.6549H34.7189L20 7.10408L5.28109 34.6549Z" fill="black"/>
<path d="M25.4443 22C24.4443 22 23.4443 22.5556 22.8888 23.4444C22.7777 23.7778 22.8888 24.1111 23.111 24.2222C23.4443 24.3333 23.7777 24.2222 23.8888 24C24.2221 23.4444 24.7777 23.1111 25.3332 23.1111C26.2221 23.1111 26.9999 23.8889 26.9999 24.7778C26.9999 25.6667 26.2221 26.4444 25.3332 26.4444H11.4443V27.7778H25.4443C26.9999 27.7778 28.3332 26.4444 28.3332 24.8889C28.2221 23.3333 26.9999 22 25.4443 22Z" fill="black"/>
<path d="M21.6666 23.1111C21.6666 21.5555 20.3333 20.2222 18.7777 20.2222C17.7777 20.2222 16.7777 20.7777 16.2221 21.6666C16.111 21.9999 16.2221 22.3333 16.4444 22.4444C16.7777 22.5555 17.111 22.4444 17.2221 22.2222C17.5555 21.6666 18.111 21.3333 18.6666 21.3333C19.5555 21.3333 20.3333 22.1111 20.3333 22.9999C20.3333 23.8888 19.5555 24.6666 18.6666 24.6666H11.3333V25.8888H18.6666C20.3333 25.9999 21.6666 24.7777 21.6666 23.1111Z" fill="black"/>
<path d="M21.3332 28.3333H11.5554V29.5555H21.3332C22.2221 29.5555 22.9999 30.3333 22.9999 31.2221C22.9999 32.111 22.2221 32.8888 21.3332 32.8888C20.6665 32.8888 20.111 32.5555 19.8888 31.9999C19.7776 31.6666 19.3332 31.6666 19.111 31.7777C18.7776 31.8888 18.7776 32.3333 18.8888 32.5555C19.4443 33.4444 20.3332 33.9999 21.4443 33.9999C22.9999 33.9999 24.3332 32.6666 24.3332 31.111C24.111 29.5555 22.8888 28.3333 21.3332 28.3333Z" fill="black"/>
</svg>
