<svg width="40" height="40" viewBox="0 0 40 40" fill="none" xmlns="http://www.w3.org/2000/svg">
<path fill-rule="evenodd" clip-rule="evenodd" d="M19.9998 3.77783L2.6665 36.2223H37.3332L19.9998 3.77783Z" fill="#FF7900"/>
<path fill-rule="evenodd" clip-rule="evenodd" d="M20 0.451538L39.9478 37.7896H0.0522461L20 0.451538ZM5.28109 34.6549H34.7189L20 7.10408L5.28109 34.6549Z" fill="black"/>
<path d="M25.4448 22C24.4448 22 23.4448 22.5556 22.8893 23.4444C22.7782 23.7778 22.8893 24.1111 23.1115 24.2222C23.4448 24.3333 23.7782 24.2222 23.8893 24C24.2226 23.4444 24.7782 23.1111 25.3337 23.1111C26.2226 23.1111 27.0004 23.8889 27.0004 24.7778C27.0004 25.6667 26.2226 26.4444 25.3337 26.4444H11.4448V27.7778H25.4448C27.0004 27.7778 28.3337 26.4444 28.3337 24.8889C28.2226 23.3333 27.0004 22 25.4448 22Z" fill="black"/>
<path d="M21.6668 23.1111C21.6668 21.5555 20.3335 20.2222 18.7779 20.2222C17.7779 20.2222 16.7779 20.7777 16.2224 21.6666C16.1113 21.9999 16.2224 22.3333 16.4446 22.4444C16.7779 22.5555 17.1113 22.4444 17.2224 22.2222C17.5557 21.6666 18.1113 21.3333 18.6668 21.3333C19.5557 21.3333 20.3335 22.1111 20.3335 22.9999C20.3335 23.8888 19.5557 24.6666 18.6668 24.6666H11.3335V25.8888H18.6668C20.3335 25.9999 21.6668 24.7777 21.6668 23.1111Z" fill="black"/>
<path d="M21.3334 28.3333H11.5557V29.5555H21.3334C22.2223 29.5555 23.0001 30.3333 23.0001 31.2221C23.0001 32.111 22.2223 32.8888 21.3334 32.8888C20.6668 32.8888 20.1112 32.5555 19.889 31.9999C19.7779 31.6666 19.3334 31.6666 19.1112 31.7777C18.7779 31.8888 18.7779 32.3333 18.889 32.5555C19.4446 33.4444 20.3334 33.9999 21.4446 33.9999C23.0001 33.9999 24.3334 32.6666 24.3334 31.111C24.1112 29.5555 22.889 28.3333 21.3334 28.3333Z" fill="black"/>
</svg>
