<svg width="40" height="40" viewBox="0 0 40 40" fill="none" xmlns="http://www.w3.org/2000/svg">
<g clip-path="url(#clip0_256_20019)">
<path d="M20.0002 39.8885C30.9845 39.8885 39.8891 30.9839 39.8891 19.9996C39.8891 9.01525 30.9845 0.110687 20.0002 0.110687C9.01589 0.110687 0.111328 9.01525 0.111328 19.9996C0.111328 30.9839 9.01589 39.8885 20.0002 39.8885Z" fill="#0C763C"/>
<path d="M33.2222 19.1111L20 5.88889L6.88892 19.2222H10.1111V32.3333H29.8889V19.1111H33.2222Z" fill="white"/>
<path d="M21.7777 18.556C22.5555 19.1115 22.9999 19.7782 23.1111 20.6671C23.3333 20.7782 23.7777 20.8893 24.1111 20.8893C25.3333 20.8893 26.3333 19.8893 26.3333 18.6671C26.3333 17.4449 25.3333 16.4449 24.1111 16.4449C22.7777 16.2226 21.7777 17.2226 21.7777 18.556ZM20.3333 23.1115C21.5555 23.1115 22.5555 22.1115 22.5555 20.8893C22.5555 19.6671 21.5555 18.6671 20.3333 18.6671C19.1111 18.6671 18.1111 19.6671 18.1111 20.8893C17.8888 22.1115 18.9999 23.1115 20.3333 23.1115ZM21.1111 23.3337H19.1111C17.4444 23.3337 16.2222 24.6671 16.2222 26.2226V28.556H16.3333C17.8888 29.1115 19.2222 29.2226 20.3333 29.2226C22.4444 29.2226 23.6666 28.556 23.8888 28.556L23.9999 28.4449V26.1115C24.1111 24.6671 22.7777 23.3337 21.1111 23.3337ZM24.9999 21.0004H23.1111C23.1111 21.7782 22.7777 22.556 22.2222 23.0004C23.7777 23.3337 24.7777 24.7782 24.7777 26.3337V27.1115C26.6666 27.0004 27.7777 26.4449 27.8888 26.4449L27.9999 26.3337V24.0004C27.8888 22.2226 26.6666 21.0004 24.9999 21.0004ZM16.1111 20.8893C16.6666 20.8893 16.9999 20.7782 17.3333 20.556C17.4444 19.7782 17.8888 19.2226 18.4444 18.7782V18.6671C18.4444 17.4449 17.4444 16.4449 16.2222 16.4449C14.9999 16.4449 13.9999 17.4449 13.9999 18.6671C13.8888 19.7782 14.8888 20.8893 16.1111 20.8893ZM18.2222 23.0004C17.6666 22.4449 17.3333 21.7782 17.3333 21.0004C17.2222 21.0004 17.2222 21.0004 17.1111 21.0004H15.1111C13.4444 21.0004 12.2222 22.3337 12.2222 23.8893V26.2226H12.3333C13.5555 26.556 14.6666 26.8893 15.5555 26.8893V26.1115C15.7777 24.7782 16.7777 23.3337 18.2222 23.0004Z" fill="#0C763C"/>
</g>
<defs>
<clipPath id="clip0_256_20019">
<rect width="40" height="40" fill="white"/>
</clipPath>
</defs>
</svg>
