<svg width="40" height="40" viewBox="0 0 40 40" fill="none" xmlns="http://www.w3.org/2000/svg">
<g clip-path="url(#clip0_6_34531)">
<path d="M20.0116 1.78013L1.78418 20.0076L20.0116 38.2351L38.2391 20.0076L20.0116 1.78013Z" fill="white" stroke="black" stroke-width="1.60498" stroke-miterlimit="1.8056"/>
<path d="M12.178 26.4009H27.4669L20.0891 33.512L12.178 26.4009Z" fill="black"/>
<path d="M26.1336 20.0898H14.0447V25.6898H26.1336V20.0898Z" fill="black"/>
<path d="M20.0002 37.0676L15.6446 33.7787L8.26685 26.4009H32.2668L20.0002 37.0676Z" fill="black"/>
<path d="M11.2891 20.5342L20.0002 13.2454L28.6224 20.5342H11.2891Z" fill="black"/>
<path d="M16.3557 14.4009H14.4001V18.2231H16.3557V14.4009Z" fill="black"/>
<path d="M19.1113 33.512C17.3335 27.7342 17.3335 27.6454 17.3335 27.3787C17.3335 26.7565 17.3335 26.6676 21.4224 23.6454L18.7557 21.0676C18.4002 20.712 18.4002 20.0898 18.6668 19.7342L21.9557 15.8231L23.5557 17.2454L20.8891 20.4454L23.6446 23.112C23.9113 23.2898 24.0002 23.5565 24.0002 23.912C24.0002 24.2676 23.8224 24.5342 23.6446 24.712C22.0446 25.8676 20.3557 27.2009 19.5557 27.912C19.9113 28.9787 20.6224 31.4676 21.1557 33.1565L19.1113 33.512Z" fill="white"/>
</g>
<defs>
<clipPath id="clip0_6_34531">
<rect width="40" height="40" fill="white"/>
</clipPath>
</defs>
</svg>
