<svg width="40" height="40" viewBox="0 0 40 40" fill="none" xmlns="http://www.w3.org/2000/svg">
<g clip-path="url(#clip0_6_39206)">
<path d="M19.7778 37.8889C29.8416 37.8889 38 29.7305 38 19.6667C38 9.60283 29.8416 1.44446 19.7778 1.44446C9.71391 1.44446 1.55554 9.60283 1.55554 19.6667C1.55554 29.7305 9.71391 37.8889 19.7778 37.8889Z" fill="white"/>
<path d="M20 3.44443C10.7778 3.44443 3.44444 10.8889 3.44444 20C3.44444 29.1111 10.8889 36.5555 20 36.5555C29.1111 36.5555 36.5556 29.1111 36.5556 20C36.5556 15.5555 34.7778 11.3333 31.6667 8.22221C28.6667 5.1111 24.4444 3.44443 20 3.44443ZM5.88889 5.88888C13.6667 -1.8889 26.3333 -1.8889 34.2222 5.88888C42.1111 13.6667 42 26.3333 34.2222 34.2222C26.4444 42.1111 13.7778 42 5.88889 34.2222C2.11111 30.4444 0 25.3333 0 20C0 14.6667 2.11111 9.55554 5.88889 5.88888Z" fill="#231F20"/>
<path d="M29.4444 13.5555L13.5555 29.4444L10.5555 26.4444L26.4444 10.5555L29.4444 13.5555Z" fill="#231F20"/>
<path d="M26.4444 29.4444L10.5555 13.5555L13.5555 10.5555L29.4444 26.4444L26.4444 29.4444Z" fill="#231F20"/>
</g>
<defs>
<clipPath id="clip0_6_39206">
<rect width="40" height="40" fill="white"/>
</clipPath>
</defs>
</svg>
