<svg width="40" height="40" viewBox="0 0 40 40" fill="none" xmlns="http://www.w3.org/2000/svg">
<g clip-path="url(#clip0_6689_107795)">
<path fill-rule="evenodd" clip-rule="evenodd" d="M20.4364 4.77771L3.10303 37.4444H37.7697L20.4364 4.77771Z" fill="#FBE032"/>
<path fill-rule="evenodd" clip-rule="evenodd" d="M20.4365 1.4353L40.3746 39.0111H0.498291L20.4365 1.4353ZM5.70798 35.8778H35.165L20.4365 8.12023L5.70798 35.8778Z" fill="black"/>
<path d="M35.5486 30.9999L33.6597 31.5555H33.5486L31.2153 30.8888C30.7708 30.6666 30.1042 30.6666 29.6597 30.8888L27.4375 31.6666L26.5486 31.2221V26.2221H28.7708L20.6597 19.3333L17.2153 22.2221V20.4444H15.3264V23.7777L12.3264 26.2221H15.1042V31.111L14.1042 31.4444H13.9931L11.6597 30.7777C11.2153 30.5555 10.5486 30.5555 10.1042 30.7777L7.88194 31.5555L5.77083 30.5555C5.65972 30.5555 5.54861 30.4444 5.4375 30.4444V32.8888L6.99305 33.4444C7.32639 33.5555 7.65972 33.6666 7.99306 33.6666H8.65972L11.1042 32.9999H11.2153L13.5486 33.6666C13.9931 33.8888 14.6597 33.8888 15.1042 33.6666L16.9931 32.9999H17.4375L19.5486 33.6666C19.9931 33.8888 20.6597 33.8888 21.1042 33.6666L22.5486 33.2221L24.2153 32.6666L26.3264 33.4444C26.6597 33.5555 26.9931 33.6666 27.3264 33.6666C27.5486 33.6666 27.8819 33.6666 28.1042 33.5555L30.4375 32.7777H30.5486L32.8819 33.4444C33.3264 33.6666 33.9931 33.6666 34.4375 33.4444L36.4375 32.7777H36.5486C36.5486 32.7777 35.9931 30.8888 35.5486 30.9999ZM22.2153 29.8888H19.1042V26.4444H22.2153V29.8888Z" fill="black"/>
<path d="M37.7708 35.3333L37.6597 35.5555L35.7708 35H35.6597L33.7708 35.6666C33.3264 35.8888 32.7708 35.8888 32.3264 35.6666L30.2153 34.8888H30.1042L27.8819 35.6666C27.5486 35.7777 27.3264 35.8888 27.1042 35.8888C26.7708 35.8888 26.5486 35.7777 26.1042 35.6666L24.1042 34.6666L22.2153 35.3333L21.1042 35.6666C20.6597 35.8888 20.1042 35.8888 19.6597 35.6666L17.2153 35.1111H16.6597L14.7708 35.6666C14.3264 35.8888 13.7708 35.8888 13.3264 35.6666L11.1042 35H10.9931L8.88194 35.7777C8.65972 35.7777 8.4375 35.8888 7.99306 35.8888C7.65972 35.8888 7.4375 35.7777 6.99306 35.6666L5.4375 34.8888V38.7777H37.7708V35.3333Z" fill="black"/>
</g>
<defs>
<clipPath id="clip0_6689_107795">
<rect width="40" height="40" fill="white"/>
</clipPath>
</defs>
</svg>
