<svg width="40" height="40" viewBox="0 0 40 40" fill="none" xmlns="http://www.w3.org/2000/svg">
<g clip-path="url(#clip0_6689_113119)">
<path fill-rule="evenodd" clip-rule="evenodd" d="M20.439 4.77771L3.10571 37.4444H37.7724L20.439 4.77771Z" fill="#FF7900"/>
<path fill-rule="evenodd" clip-rule="evenodd" d="M20.439 1.4353L40.3772 39.0111H0.500854L20.439 1.4353ZM5.71055 35.8778H35.1675L20.439 8.12023L5.71055 35.8778Z" fill="black"/>
<path d="M35.6623 30.9999L33.7734 31.5555H33.6623L31.329 30.8888C30.8845 30.6666 30.2178 30.6666 29.7734 30.8888L27.5512 31.6666L26.6623 31.2221V26.2221H28.8845L20.7734 19.3333L17.329 22.2221V20.4444H15.4401V23.7777L12.4401 26.2221H15.2178V31.111L14.2178 31.4444H14.1067L11.7734 30.7777C11.329 30.5555 10.6623 30.5555 10.2178 30.7777L7.99562 31.5555L5.7734 30.5555C5.66229 30.5555 5.55117 30.4444 5.44006 30.4444V32.8888L6.99562 33.4444C7.32895 33.5555 7.66229 33.6666 7.99562 33.6666H8.66229L11.1067 32.9999H11.2178L13.5512 33.6666C13.9956 33.8888 14.6623 33.8888 15.1067 33.6666L16.9956 32.9999H17.4401L19.5512 33.6666C19.9956 33.8888 20.6623 33.8888 21.1067 33.6666L22.5512 33.2221L24.2178 32.6666L26.329 33.4444C26.6623 33.5555 26.9956 33.6666 27.329 33.6666C27.5512 33.6666 27.8845 33.6666 28.1067 33.5555L30.4401 32.7777H30.5512L32.8845 33.4444C33.329 33.6666 33.9956 33.6666 34.4401 33.4444L36.4401 32.7777H36.5512C36.6623 32.7777 36.1067 30.8888 35.6623 30.9999ZM22.329 29.8888H19.2178V26.4444H22.329V29.8888Z" fill="black"/>
<path d="M37.7734 35.3333V35.5555L35.8845 35H35.7734L33.8845 35.6666C33.44 35.8888 32.8845 35.8888 32.44 35.6666L30.3289 34.8888H30.2178L27.9956 35.6666C27.6623 35.7777 27.44 35.8888 27.2178 35.8888C26.8845 35.8888 26.6623 35.7777 26.2178 35.6666L24.2178 34.6666L22.3289 35.3333L21.2178 35.6666C20.7734 35.8888 20.2178 35.8888 19.7734 35.6666L17.3289 35.1111H16.7734L14.8845 35.6666C14.44 35.8888 13.8845 35.8888 13.44 35.6666L11.2178 35H11.1067L8.99559 35.7777C8.77337 35.7777 8.55115 35.8888 8.1067 35.8888C7.77337 35.8888 7.55115 35.7777 7.1067 35.6666L5.55115 34.8888V38.7777H37.8845V35.3333H37.7734Z" fill="black"/>
</g>
<defs>
<clipPath id="clip0_6689_113119">
<rect width="40" height="40" fill="white"/>
</clipPath>
</defs>
</svg>
