<svg width="40" height="40" viewBox="0 0 40 40" fill="none" xmlns="http://www.w3.org/2000/svg">
<g clip-path="url(#clip0_6689_113143)">
<path d="M5.2761 32.3334H33.2761L34.0539 35.8889H3.38721L5.2761 32.3334Z" fill="#D6001C"/>
<path d="M19.4983 5L2.16498 37.3333H36.7205L19.4983 5Z" fill="black"/>
<mask id="mask0_6689_113143" style="mask-type:luminance" maskUnits="userSpaceOnUse" x="4" y="7" width="31" height="29">
<path d="M19.4983 7.55554L4.16498 36L34.2761 35.6667L19.4983 7.55554Z" fill="white"/>
</mask>
<g mask="url(#mask0_6689_113143)">
<path fill-rule="evenodd" clip-rule="evenodd" d="M19.3872 7.11108L7.27612 28.8889L31.3872 29.2222L19.3872 7.11108Z" fill="#D6001C"/>
<path d="M25.2761 25.2222H13.9427V30.4444H25.2761V25.2222Z" fill="white"/>
<path d="M11.2761 25.5555L19.4983 18.6666L27.4983 25.5555H11.2761Z" fill="white"/>
<path d="M15.9428 19.8889H14.165V23.4445H15.9428V19.8889Z" fill="white"/>
<path d="M21.0539 25.7777H17.9427V29.2222H21.0539V25.7777Z" fill="#D6001C"/>
<path d="M37.2761 33.1111H1.38721V36.4444H37.2761V33.1111Z" fill="#FF7900"/>
<path d="M7.38722 36.7777C7.05389 36.7777 6.72055 36.6666 6.49833 36.5555L4.49833 35.6666L2.60944 36.3333L1.83167 34.2222L3.83166 33.5555C4.38722 33.4444 4.94278 33.4444 5.38722 33.6666L7.38722 34.5555L9.49833 33.6666C9.94278 33.4444 10.4983 33.4444 10.9428 33.6666L13.165 34.4444H13.2761L15.165 33.7777C15.6094 33.6666 16.165 33.5555 16.6094 33.6666L19.8317 34.5555L16.7206 36L16.0539 35.7778H15.9428L14.165 36.5555C13.7206 36.7778 13.165 36.7778 12.7206 36.5555L10.4983 35.7778H10.3872L8.165 36.6666C7.83167 36.7778 7.60944 36.7777 7.38722 36.7777Z" fill="#D6001C"/>
<path d="M25.9428 36.7777C25.6094 36.7777 25.2761 36.6666 25.0539 36.5555L23.0539 35.6666L21.9428 36L19.3872 34.5555L22.4983 33.5555C23.0539 33.4444 23.6094 33.4444 24.0539 33.6666L26.0539 34.5555L28.165 33.6666C28.6094 33.4444 29.165 33.4444 29.6094 33.6666L31.8317 34.4444H31.9428L33.7205 33.7777C34.165 33.6666 34.7205 33.5555 35.165 33.6666L37.165 34.2222L36.4983 36.3333L34.4983 35.7778H34.3872L32.6094 36.6666C32.165 36.8889 31.6094 36.8889 31.165 36.6666L28.9428 35.8889H28.8317L26.6094 36.7777C26.4983 36.7777 26.165 36.7777 25.9428 36.7777Z" fill="#D6001C"/>
<path d="M19.6094 34.5555L22.2761 36H16.7205L19.6094 34.5555Z" fill="#D6001C"/>
<path d="M36.3872 31.7777C35.8317 31.6666 35.2761 31.6666 34.8317 31.8888L32.8317 32.5555H32.7205L30.3872 31.7777C29.8317 31.5555 29.2761 31.5555 28.8317 31.7777L26.6094 32.6666L24.4983 31.7777C23.9428 31.5555 23.3872 31.5555 22.8317 31.6666L19.7205 32.6666L16.3872 31.7777C15.8317 31.6666 15.3872 31.6666 14.8317 31.8888L12.8317 32.5555H12.7205L10.3872 31.7777C9.83166 31.5555 9.2761 31.5555 8.83166 31.7777L6.60944 32.6666L4.49832 31.7777C3.94277 31.5555 3.38721 31.5555 2.83166 31.6666L0.609436 32.2222L1.38721 34.3333L3.38721 33.6666L5.49832 34.5555C5.83166 34.6666 6.16499 34.7777 6.49832 34.7777C6.72055 34.7777 7.05388 34.7777 7.2761 34.6666L9.60944 33.7777H9.72055L12.0539 34.5555C12.6094 34.7777 13.165 34.7777 13.6094 34.5555L15.6094 33.7777H15.7205L16.4983 33.8888L18.8317 34.6666C19.3872 34.8888 19.9428 34.8888 20.3872 34.6666L23.4983 33.5555L25.6094 34.4444C25.9428 34.5555 26.2761 34.6666 26.6094 34.6666C26.8317 34.6666 27.165 34.6666 27.3872 34.5555L29.7205 33.6666H29.8317L32.165 34.4444C32.7205 34.6666 33.2761 34.6666 33.7205 34.4444L35.7205 33.6666H35.8317L37.9428 34.2222L38.6094 32.1111L36.3872 31.7777Z" fill="white"/>
<path d="M7.60945 33.1111C7.27612 33.1111 6.94278 33 6.72056 32.8889L4.72056 32L2.83167 32.6667L2.05389 30.5556L4.05389 29.8889C4.60945 29.7778 5.16501 29.7778 5.60945 30L7.60945 30.8889L9.72056 30.1111C10.165 29.8889 10.7206 29.8889 11.165 30.1111L13.3872 30.8889H13.4983L15.2761 30.2222C15.7206 30.1111 16.2761 30 16.7206 30.1111L20.165 31.1111L16.8317 32.4445L16.2761 32.2222H16.165L14.3872 33C13.9428 33.2222 13.3872 33.2222 12.9428 33L10.7206 32.2222H10.6095L8.38723 33C8.16501 33.1111 7.94278 33.1111 7.60945 33.1111Z" fill="#D6001C"/>
<path d="M26.6095 33.1111C26.2761 33.1111 25.9428 33 25.7206 32.8889L23.7206 32L22.6095 32.3333L19.2761 31.1111L22.9428 29.8889C23.4983 29.7778 24.0539 29.7778 24.4983 30L26.4983 30.8889L28.6095 30.1111C29.0539 29.8889 29.6095 29.8889 30.0539 30.1111L32.2761 30.8889H32.3872L34.2761 30.2222C34.7206 30.1111 35.2761 30 35.7206 30.1111L37.7206 30.6667L37.0539 32.7778L35.2761 32.2222H35.165L33.3872 33C32.9428 33.2222 32.3872 33.2222 31.9428 33L29.7206 32.2222H29.6095L27.3872 33C27.0539 33.1111 26.8317 33.1111 26.6095 33.1111Z" fill="#D6001C"/>
<path d="M22.6094 32.3333L20.7205 33.111C20.2761 33.3333 19.7205 33.3333 19.2761 33.111L17.0539 32.3333H16.9427" fill="#D6001C"/>
<path d="M19.3872 30.5555L22.4983 32.3333H17.0539L19.3872 30.5555Z" fill="#D6001C"/>
<path d="M30.6094 28C30.0539 27.7778 29.4983 27.7778 29.0539 28L26.8317 28.8889L24.7206 28C24.165 27.7778 23.6094 27.7778 23.0539 27.8889L19.7206 28.8889L16.4983 28C15.9428 27.8889 15.4983 27.8889 14.9428 28.1111L13.0539 28.7778H12.9428L10.6094 28C10.0539 27.7778 9.49833 27.7778 9.05389 28L6.83167 28.8889L5.83167 30.8889C6.05389 31 6.38722 31.1111 6.72055 31.1111C6.94278 31.1111 7.27611 31.1111 7.49833 31L9.83167 30.1111H9.94278L12.2761 30.8889C12.8317 31.1111 13.3872 31.1111 13.8317 30.8889L15.8317 30.1111H15.9428L17.0539 30.4445L19.0539 31.1111C19.6094 31.3333 20.165 31.3333 20.6094 31.1111L22.0539 30.5556L23.7206 30L25.8317 30.8889C26.165 31 26.4983 31.1111 26.8317 31.1111C27.0539 31.1111 27.3872 31.1111 27.6094 31L29.9428 30.1111H30.0539L32.3872 30.8889C32.9428 31.1111 30.6094 28 30.6094 28Z" fill="white"/>
</g>
<path d="M17.0538 32.3334L19.9427 31.8889L22.4983 32L22.7205 32.2222L22.0538 32.5556L17.0538 32.3334Z" fill="#D6001C"/>
<path d="M39.4983 39H-0.501709L19.4983 1.44446L39.4983 39ZM5.05385 35.6667H34.0538L19.6094 8.55557C19.4983 8.55557 5.05385 35.6667 5.05385 35.6667Z" fill="black"/>
</g>
<defs>
<clipPath id="clip0_6689_113143">
<rect width="40" height="40" fill="white"/>
</clipPath>
</defs>
</svg>
