<svg width="40" height="40" viewBox="0 0 40 40" fill="none" xmlns="http://www.w3.org/2000/svg">
    <path fill-rule="evenodd" clip-rule="evenodd"
        d="M19.9993 3.77821L2.66602 36.2227H37.3327L19.9993 3.77821Z" fill="#FF7900" stroke="black"
        stroke-width="3.13578" stroke-miterlimit="2.8222" />
    <path
        d="M20.0009 28.8881C21.9645 28.8881 23.5564 27.2962 23.5564 25.3326C23.5564 23.3689 21.9645 21.777 20.0009 21.777C18.0372 21.777 16.4453 23.3689 16.4453 25.3326C16.4453 27.2962 18.0372 28.8881 20.0009 28.8881Z"
        fill="black" />
    <path
        d="M19.5566 18.8881V20.2215C19.5566 20.4437 19.7789 20.6659 20.0011 20.6659C20.2233 20.6659 20.4455 20.4437 20.4455 20.2215V18.8881C20.4455 18.6659 20.2233 18.4437 20.0011 18.4437C19.7789 18.4437 19.5566 18.6659 19.5566 18.8881Z"
        fill="black" />
    <path
        d="M19.5547 30.4441V31.7775C19.5547 31.9997 19.7769 32.2219 19.9991 32.2219C20.2214 32.2219 20.4436 31.9997 20.4436 31.7775V30.4441C20.4436 30.2219 20.2214 29.9997 19.9991 29.9997C19.7769 29.9997 19.5547 30.1108 19.5547 30.4441Z"
        fill="black" />
    <path
        d="M14.2233 22.2219L15.2233 22.7774L15.3344 22.8885C15.5566 22.9996 15.7789 22.8885 16.0011 22.7774C16.1122 22.5552 16.0011 22.333 15.89 22.1108L14.89 21.5552L14.7789 21.4441C14.5566 21.333 14.3344 21.4441 14.2233 21.6663C14.0011 21.8885 14.0011 22.1108 14.2233 22.2219Z"
        fill="black" />
    <path
        d="M24.1109 27.9988L25.1109 28.5543L25.222 28.6654C25.4442 28.7766 25.6665 28.6654 25.7776 28.4432C25.8887 28.221 25.7776 27.9988 25.6665 27.8877L24.6665 27.3321L24.5553 27.221C24.3331 27.1099 24.1109 27.221 23.8887 27.4432C23.8887 27.5543 23.9998 27.8877 24.1109 27.9988Z"
        fill="black" />
    <path
        d="M25.3336 21.7773L24.3336 22.3329L24.2225 22.444C24.0003 22.5551 23.8891 22.8884 24.1114 23.1106C24.2225 23.3329 24.5558 23.444 24.778 23.2217L25.778 22.6662L25.8891 22.5551C26.1114 22.444 26.2225 22.1106 26.0003 21.8884C25.778 21.6662 25.5558 21.6662 25.3336 21.7773Z"
        fill="black" />
    <path
        d="M15.3336 27.4437L14.3336 27.9992L14.2225 28.1103C14.0003 28.2215 13.8891 28.5548 14.1114 28.777C14.2225 28.9992 14.5558 29.1103 14.778 28.8881L15.778 28.3326L15.8891 28.2215C16.1114 28.1103 16.2225 27.777 16.0003 27.5548C15.8891 27.4437 15.5558 27.3326 15.3336 27.4437Z"
        fill="black" />
</svg>