<svg width="40" height="40" viewBox="0 0 40 40" fill="none" xmlns="http://www.w3.org/2000/svg">
<path fill-rule="evenodd" clip-rule="evenodd" d="M19.9993 4.7782L2.66602 37.3338H37.3327L19.9993 4.7782Z" fill="#D6001C" stroke="black" stroke-width="3.13578" stroke-miterlimit="2.8222"/>
<path d="M19.9985 30.3338C22.0849 30.3338 23.7763 28.6424 23.7763 26.556C23.7763 24.4696 22.0849 22.7782 19.9985 22.7782C17.9121 22.7782 16.2207 24.4696 16.2207 26.556C16.2207 28.6424 17.9121 30.3338 19.9985 30.3338Z" fill="white"/>
<path d="M19.4434 19.5556V21.4444C19.4434 21.7778 19.6656 22 19.9989 22C20.3322 22 20.5545 21.7778 20.5545 21.4444V19.5556C20.5545 19.2222 20.3322 19 19.9989 19C19.6656 19.1111 19.4434 19.3333 19.4434 19.5556Z" fill="white"/>
<path d="M19.4434 31.8893V33.7782C19.4434 34.1115 19.6656 34.3337 19.9989 34.3337C20.3322 34.3337 20.5545 34.1115 20.5545 33.7782V31.8893C20.5545 31.556 20.3322 31.3337 19.9989 31.3337C19.6656 31.3337 19.4434 31.556 19.4434 31.8893Z" fill="white"/>
<path d="M12.9989 27.0002H14.8878C15.2211 27.0002 15.4434 26.778 15.4434 26.4447C15.4434 26.1113 15.2211 25.8891 14.8878 25.8891H12.9989C12.6656 25.8891 12.4434 26.1113 12.4434 26.4447C12.5545 26.778 12.7767 27.0002 12.9989 27.0002Z" fill="white"/>
<path d="M25.1102 27.0004H26.9991C27.3325 27.0004 27.5547 26.7782 27.5547 26.4449C27.5547 26.1115 27.3325 25.8893 26.9991 25.8893H25.1102C24.7769 25.8893 24.5547 26.1115 24.5547 26.4449C24.5547 26.7782 24.7769 27.0004 25.1102 27.0004Z" fill="white"/>
<path d="M15.4444 31.7782L16.6667 30.556L16.8889 30.3338C17.1111 30.1115 17.1111 29.7782 16.8889 29.6671C16.6667 29.4449 16.3333 29.4449 16.2222 29.6671L15 30.8893L14.6667 31.1115C14.4444 31.3338 14.4444 31.6671 14.6667 31.7782C14.8889 32.0004 15.2222 32.0004 15.4444 31.7782Z" fill="white"/>
<path d="M23.8878 23.3337L25.11 22.2226L25.3322 22.0004C25.5545 21.7782 25.5545 21.4449 25.3322 21.3338C25.11 21.1115 24.8878 21.1115 24.6656 21.3338L23.3322 22.4449L23.11 22.6671C22.8878 22.8893 22.8878 23.2226 23.11 23.3337C23.3322 23.4449 23.7767 23.556 23.8878 23.3337Z" fill="white"/>
<path d="M25.3325 31.1115L24.1102 29.8893L23.888 29.6671C23.6658 29.4449 23.3325 29.4449 23.2214 29.6671C22.9991 29.8893 22.9991 30.2226 23.2214 30.3338L24.4436 31.556L24.6658 31.7782C24.888 32.0004 25.2214 32.0004 25.3325 31.7782C25.4436 31.6671 25.4436 31.3338 25.3325 31.1115Z" fill="white"/>
<path d="M16.7778 22.556L15.5556 21.4449L15.3333 21.2226C15.1111 21.0004 14.7778 21.0004 14.6667 21.2226C14.4444 21.4449 14.4444 21.7782 14.6667 21.8893L15.8889 23.1115L16.1111 23.3337C16.3333 23.556 16.6667 23.556 16.7778 23.3337C17 23.1115 17 22.7782 16.7778 22.556Z" fill="white"/>
</svg>
