<svg width="40" height="40" viewBox="0 0 40 40" fill="none" xmlns="http://www.w3.org/2000/svg">
<g clip-path="url(#clip0_6_32939)">
<path d="M20.0272 1.77268L1.8783 19.9216L20.0272 38.0705L38.1761 19.9216L20.0272 1.77268Z" fill="white" stroke="black" stroke-width="2.50778" stroke-miterlimit="2.257"/>
<path d="M21.6667 28.444C21.6667 29.3329 21 30.1106 20 30.1106C19.1112 30.1106 18.3334 29.444 18.3334 28.444C18.3334 27.5551 19 26.7773 20 26.7773C20.8889 26.6662 21.6667 27.444 21.6667 28.444Z" fill="black"/>
<path d="M20.0001 25.3325C20.6667 25.3325 21.2223 24.7769 21.3334 24.1102L22.2223 13.4436C22.2223 12.7769 22.0001 12.2214 21.5556 11.7769C21.2223 11.3325 20.5556 11.1102 20.0001 11.1102C19.3334 11.1102 18.8889 11.3325 18.4445 11.7769C18.0001 12.2214 17.7778 12.888 17.7778 13.4436L18.6667 24.1102C18.6667 24.888 19.2223 25.3325 20.0001 25.3325Z" fill="black"/>
</g>
<defs>
<clipPath id="clip0_6_32939">
<rect width="40" height="40" fill="white"/>
</clipPath>
</defs>
</svg>
