<svg width="40" height="40" viewBox="0 0 40 40" fill="none" xmlns="http://www.w3.org/2000/svg">
<g clip-path="url(#clip0_6_41578)">
<path fill-rule="evenodd" clip-rule="evenodd" d="M20.1112 4.77865L2.77783 37.2231H37.4445L20.1112 4.77865Z" fill="white" stroke="black" stroke-width="3.13478" stroke-miterlimit="2.8213"/>
<path d="M21.889 31.3333C21.889 32.2222 21.2223 33 20.2223 33C19.3334 33 18.5557 32.3333 18.5557 31.3333C18.5557 30.4444 19.2223 29.6667 20.2223 29.6667C21.1112 29.7778 21.889 30.4444 21.889 31.3333Z" fill="black"/>
<path d="M20.2222 28.4449C20.8889 28.4449 21.4444 27.8893 21.5555 27.2227L22.4444 16.8893C22.4444 16.3338 22.2222 15.6671 21.8889 15.2227C21.4444 14.7782 20.8889 14.556 20.2222 14.556C19.5555 14.556 19 14.7782 18.6666 15.2227C18.2222 15.6671 18.1111 16.2227 18.1111 16.8893L19 27.2227C19.1111 27.8893 19.5555 28.4449 20.2222 28.4449Z" fill="black"/>
</g>
<defs>
<clipPath id="clip0_6_41578">
<rect width="40" height="40" fill="white"/>
</clipPath>
</defs>
</svg>
