<svg width="40" height="40" viewBox="0 0 40 40" fill="none" xmlns="http://www.w3.org/2000/svg">
<path d="M20.1485 1.95621L2.10962 19.9951L20.1485 38.034L38.1874 19.9951L20.1485 1.95621Z" fill="black" stroke="black" stroke-width="1.20373" stroke-miterlimit="2.257"/>
<path d="M20.1485 1.95621L2.10962 19.9951L20.1485 38.034L38.1874 19.9951L20.1485 1.95621Z" stroke="black" stroke-width="1.20373" stroke-miterlimit="2.257"/>
<path d="M26.4886 17.4224C26.4886 17.4224 26.4886 18.7557 26.2219 20.178C25.5108 17.2446 23.5552 14.7557 23.5552 14.7557C23.1997 19.2891 20.7997 19.7335 20.7997 19.7335C20.7997 19.7335 21.5108 18.4002 21.6886 16.0002C21.7774 13.1557 19.3774 11.2891 19.3774 11.2891C19.3774 11.2891 19.3774 11.2891 18.6663 13.8668C18.3997 14.7557 17.7774 15.4668 16.9774 16.178C16.533 14.4002 15.0219 13.4224 15.0219 13.3335C15.0219 13.3335 15.3774 13.6002 15.3774 15.1113C15.4663 16.7113 12.7108 18.1335 12.533 20.978C12.3552 24.8891 16.0886 27.0224 17.0663 27.5557C17.9552 28.2668 18.5774 28.8002 18.5774 28.8002C17.5108 25.9557 17.6886 24.5335 18.4886 23.2891C19.3774 21.9557 21.0663 21.6002 21.0663 21.6002C19.2886 24.3557 22.2219 24.7113 21.8663 28.8891C21.8663 28.8891 22.4886 28.8002 23.1997 28.1779C24.4441 27.6446 26.7552 26.2224 27.3774 23.1113C28.1774 18.8446 26.4886 17.4224 26.4886 17.4224Z" fill="white"/>
</svg>
