<svg width="40" height="40" viewBox="0 0 40 40" fill="none"
    xmlns="http://www.w3.org/2000/svg">
    <g clip-path="url(#clip0_6_51403)">
        <path d="M19.9998 38.1114C30.0023 38.1114 38.1109 30.0028 38.1109 20.0003C38.1109 9.99784 30.0023 1.88922 19.9998 1.88922C9.99729 1.88922 1.88867 9.99784 1.88867 20.0003C1.88867 30.0028 9.99729 38.1114 19.9998 38.1114Z" fill="white"/>
        <path d="M19.9985 3.77843C28.9985 3.77843 36.2207 11.1118 36.2207 20.0007C36.2207 28.8895 28.8874 36.2229 19.9985 36.2229C11.1096 36.2229 3.77626 28.8895 3.77626 20.0007C3.77626 11.1118 10.9985 3.77843 19.9985 3.77843ZM19.9985 0.333984C8.99848 0.333984 0.220703 9.22287 0.220703 20.0007C0.220703 30.7784 9.10959 39.7784 19.9985 39.7784C30.8874 39.7784 39.7763 30.8895 39.7763 20.0007C39.7763 9.11176 30.9985 0.333984 19.9985 0.333984Z" fill="#D6001C"/>
        <path d="M27.8888 16.7777C27.8888 12.111 23.8888 8.44435 19.111 8.9999C15.6666 9.33323 12.7777 12.111 12.2221 15.6666C11.6666 19.2221 13.5554 22.3332 16.3332 23.7777V25.5555C16.3332 25.9999 16.6666 26.3332 17.111 26.3332H22.7777C23.2221 26.3332 23.5554 25.9999 23.5554 25.5555V23.6666C26.111 22.3332 27.8888 19.7777 27.8888 16.7777Z" fill="black"/>
        <path d="M22.8891 28.5555H17.1113C16.1113 28.5555 16.1113 26.9999 17.1113 26.9999H22.8891C23.8891 26.9999 23.8891 28.5555 22.8891 28.5555Z" fill="black"/>
        <path d="M22.8891 30.555H17.1113C16.1113 30.555 16.1113 28.9995 17.1113 28.9995H22.8891C23.8891 28.9995 23.8891 30.555 22.8891 30.555Z" fill="black"/>
        <path d="M21.6675 32.5559H18.4453C17.4453 32.5559 17.4453 31.0003 18.4453 31.0003H21.6675C22.6675 31.0003 22.6675 32.5559 21.6675 32.5559Z" fill="black"/>
        <path d="M7.55469 33.6665L31.3325 6.22202L32.3325 6.99979L8.55469 34.4442L7.55469 33.6665Z" fill="#D6001C"/>
    </g>
    <defs>
        <clipPath id="clip0_6_51403">
            <rect width="40" height="40" fill="white"/>
        </clipPath>
    </defs>
</svg>
