<svg width="40" height="40" viewBox="0 0 40 40" fill="none" xmlns="http://www.w3.org/2000/svg">
<g clip-path="url(#clip0_324_42576)">
<path d="M20.0738 1.84125L1.90918 20.0059L20.0738 38.1705L38.2384 20.0059L20.0738 1.84125Z" stroke="white" stroke-width="1.8056" stroke-miterlimit="2.257"/>
<path d="M20.0738 1.84125L1.90918 20.0059L20.0738 38.1705L38.2384 20.0059L20.0738 1.84125Z" fill="white"/>
<path fill-rule="evenodd" clip-rule="evenodd" d="M36.7143 20.0002L34.1348 17.4206L35.5534 16.002L39.5517 20.0002L35.5534 23.9984L34.1348 22.5797L36.7143 20.0002Z" fill="black"/>
<path fill-rule="evenodd" clip-rule="evenodd" d="M31.7311 27.821L30.2867 29.2655L28.868 27.8468L30.3124 26.4023L31.7311 27.821ZM27.3978 32.1544L25.9533 33.5988L24.5347 32.1801L25.9791 30.7357L27.3978 32.1544Z" fill="black"/>
<path fill-rule="evenodd" clip-rule="evenodd" d="M19.9997 36.7153L17.4201 34.1357L16.0015 35.5544L19.9997 39.5526L23.9979 35.5544L22.5792 34.1357L19.9997 36.7153Z" fill="black"/>
<path fill-rule="evenodd" clip-rule="evenodd" d="M7.84581 27.3983L6.40137 25.9538L7.82004 24.5352L9.26449 25.9796L7.84581 27.3983ZM12.1791 31.7316L10.7347 30.2872L12.1534 28.8685L13.5978 30.3129L12.1791 31.7316Z" fill="black"/>
<path fill-rule="evenodd" clip-rule="evenodd" d="M3.28511 20.0002L5.86466 17.4206L4.44598 16.002L0.447754 20.0002L4.44598 23.9984L5.86466 22.5797L3.28511 20.0002Z" fill="black"/>
<path fill-rule="evenodd" clip-rule="evenodd" d="M15.4645 7.73215L14.0201 9.1766L12.6014 7.75792L14.0458 6.31348L15.4645 7.73215ZM11.1312 12.0655L9.68674 13.5099L8.26807 12.0913L9.71251 10.6468L11.1312 12.0655Z" fill="black"/>
<path fill-rule="evenodd" clip-rule="evenodd" d="M19.9997 0.448242L23.9979 4.44647L22.5792 5.86515L19.9997 3.2856L17.4201 5.86515L16.0015 4.44647L19.9997 0.448242Z" fill="black"/>
<path fill-rule="evenodd" clip-rule="evenodd" d="M27.8458 11.1317L26.4014 9.68723L27.82 8.26855L29.2645 9.713L27.8458 11.1317ZM32.1791 15.465L30.7347 14.0206L32.1534 12.6019L33.5978 14.0463L32.1791 15.465Z" fill="black"/>
<path d="M12.3556 21.5109C12.0889 25.422 15.9111 27.6442 16.9778 28.1776C18.1334 29.0664 18.5778 29.422 18.5778 29.422C17.5111 26.4887 17.7778 25.6887 18.5778 24.4442C19.4667 23.1109 20.6222 22.8442 20.6222 22.8442C18.7556 25.5109 22.2222 25.0664 21.8667 29.3331C21.8667 29.3331 22.4889 29.2442 23.2889 28.622C24.5334 28.0887 26.9334 26.5776 27.6445 23.4664C28.5334 19.1998 24.8 17.0664 24.8 17.0664C24.8 17.0664 20.8 18.6664 22.0445 16.8887" fill="black"/>
<path d="M24.8001 17.0664C25.4223 17.7775 24.8001 18.222 24.9779 19.1109C25.1557 20.0886 25.1557 20.9775 24.9779 21.9553C24.889 22.9331 24.6223 23.9997 24.0001 24.8886C23.289 25.8664 20.8001 21.9553 19.5557 22.3109" fill="black"/>
<path d="M12.8888 24.2669C12.4444 23.2002 11.911 20.7113 12.0888 19.5557C12.3555 18.4002 12.8888 17.2446 13.7777 16.2669C13.6888 17.0669 14.0444 17.9558 14.6666 18.578C14.311 16.978 15.6444 15.1113 16.7999 13.8669C17.9555 12.6224 19.7332 11.7335 21.4221 11.2002C20.4444 12.5335 20.4444 14.1335 21.3332 15.7335C22.2221 16.978 23.1999 16.4446 23.9999 16.0002C24.3555 15.8224 24.6221 15.5558 24.8888 15.5558C24.9777 15.5558 25.1555 15.9113 25.2444 16.0002C25.5999 16.5335 25.2444 16.0891 25.511 16.3558C26.311 17.4224 27.5555 19.7335 27.6444 21.1558" fill="black"/>
</g>
<defs>
<clipPath id="clip0_324_42576">
<rect width="40" height="40" fill="white"/>
</clipPath>
</defs>
</svg>
