<svg width="40" height="40" viewBox="0 0 40 40" fill="none" xmlns="http://www.w3.org/2000/svg">
<g clip-path="url(#clip0_4556_93439)">
<path d="M20.0003 38.0005C30.0028 38.0005 38.1114 29.8919 38.1114 19.8894C38.1114 9.88694 30.0028 1.77832 20.0003 1.77832C9.99778 1.77832 1.88916 9.88694 1.88916 19.8894C1.88916 29.8919 9.99778 38.0005 20.0003 38.0005Z" fill="white"/>
<path d="M19.9999 0.22168C8.99994 0.22168 0.222168 9.11057 0.222168 19.9995C0.222168 30.8883 9.11106 39.7772 19.9999 39.7772C30.8888 39.7772 39.7777 30.8883 39.7777 19.9995C39.7777 9.11057 30.9999 0.22168 19.9999 0.22168Z" fill="#D6001C"/>
<path d="M38.0001 19.8887L1.77783 19.9998" stroke="white" stroke-width="6.66667" stroke-miterlimit="2.8213"/>
<path d="M20.0002 3.55501C29.1113 3.55501 36.4446 10.8883 36.4446 19.9995C36.4446 29.1106 29.1113 36.4439 20.0002 36.4439C10.8891 36.4439 3.55575 28.9995 3.55575 19.9995C3.55575 10.9995 10.8891 3.55501 20.0002 3.55501ZM20.0002 0.22168C9.1113 0.22168 0.222412 9.11057 0.222412 19.9995C0.222412 30.8883 9.1113 39.7772 20.0002 39.7772C30.8891 39.7772 39.778 30.8883 39.778 19.9995C39.778 9.11057 30.8891 0.22168 20.0002 0.22168Z" fill="#D6001C"/>
</g>
<defs>
<clipPath id="clip0_4556_93439">
<rect width="40" height="40" fill="white"/>
</clipPath>
</defs>
</svg>
