<svg width="40" height="40" viewBox="0 0 40 40" fill="none" xmlns="http://www.w3.org/2000/svg">
<g clip-path="url(#clip0_6_35973)">
<path d="M20.0405 1.91965L1.8916 20.0686L20.0405 38.2175L38.1894 20.0686L20.0405 1.91965Z" fill="white" stroke="black" stroke-width="2.50778" stroke-miterlimit="2.257"/>
<path d="M28.4384 19.8885C28.4384 15.3329 24.6606 11.5551 20.1051 11.5551H19.994C15.4384 11.5551 11.6606 15.3329 11.6606 19.8885V19.9996C11.6606 24.5551 15.4384 28.3329 19.994 28.3329H20.1051C24.6606 28.3329 28.4384 24.6662 28.4384 19.8885ZM24.6606 19.7773C24.6606 22.2218 22.6606 24.1107 20.3273 24.1107C17.8829 24.1107 15.994 22.1107 15.994 19.7773C15.994 17.3329 17.994 15.444 20.3273 15.444C22.6606 15.3329 24.6606 17.444 24.6606 19.7773Z" stroke="black" stroke-width="0.752333" stroke-miterlimit="2.2571"/>
<path d="M19.7725 15.3329V11.5551C19.7725 11.5551 23.328 11.6662 25.8836 14.2218C28.4391 16.7773 27.9947 19.7773 27.9947 19.7773H24.5502C24.5502 19.7773 24.5502 17.8885 23.1058 16.444C21.8836 14.8885 19.7725 15.3329 19.7725 15.3329Z" fill="black"/>
<path d="M20.6625 24.2218V28.444C20.6625 28.444 16.8847 28.3329 14.218 25.6662C11.5514 22.9996 11.7736 19.8885 11.7736 19.8885H15.6625C15.6625 19.8885 15.6625 21.8885 17.1069 23.3329C18.5514 24.7773 20.6625 24.2218 20.6625 24.2218Z" fill="black"/>
</g>
<defs>
<clipPath id="clip0_6_35973">
<rect width="40" height="40" fill="white"/>
</clipPath>
</defs>
</svg>
