<svg width="40" height="40" viewBox="0 0 40 40" fill="none" xmlns="http://www.w3.org/2000/svg">
<g clip-path="url(#clip0_6_33254)">
<path d="M20.0272 1.77268L1.8783 19.9216L20.0272 38.0705L38.1761 19.9216L20.0272 1.77268Z" fill="white" stroke="black" stroke-width="2.50778" stroke-miterlimit="2.257"/>
<path d="M14.5695 15.9114C14.6806 15.8003 14.7917 15.8003 14.7917 15.6892C15.2362 14.1336 16.9028 13.1336 18.4584 13.6892C18.5695 13.6892 18.5695 13.6892 18.6806 13.8003C18.9028 13.9114 18.9028 13.8003 18.9028 13.6892C20.014 12.0225 22.3473 11.467 24.014 12.5781C25.1251 13.2447 25.6806 14.467 25.6806 15.6892C25.6806 15.9114 25.6806 15.9114 25.9028 15.9114C27.014 16.3558 27.4584 17.6892 27.2362 18.8003C27.014 20.0225 25.9028 20.9114 24.5695 20.9114H15.2362C14.014 20.6892 13.1251 19.6892 13.014 18.5781C12.9028 17.3558 13.4584 16.2447 14.5695 15.9114Z" fill="black"/>
<path d="M22.9028 21.4674C22.7917 21.5785 20.2361 23.5785 20.125 23.5785H21.9028C21.9028 23.6896 17.3472 27.2452 17.2361 27.3563C17.125 27.2452 18.5694 25.5785 18.7917 24.5785C18.3472 24.5785 16.6806 24.6896 16.125 24.6896C16.125 24.8007 19.2361 21.4674 19.2361 21.4674" fill="black"/>
</g>
<defs>
<clipPath id="clip0_6_33254">
<rect width="40" height="40" fill="white"/>
</clipPath>
</defs>
</svg>
