<svg width="40" height="40" viewBox="0 0 40 40" fill="none" xmlns="http://www.w3.org/2000/svg">
<path fill-rule="evenodd" clip-rule="evenodd" d="M19.9408 4.77783L2.60742 37.4445H37.2741L19.9408 4.77783Z" fill="#FBE032"/>
<path fill-rule="evenodd" clip-rule="evenodd" d="M19.9402 1.43274L39.8804 39.0124H0L19.9402 1.43274ZM5.21376 35.8766H34.6667L19.9402 8.12289L5.21376 35.8766Z" fill="black"/>
<path d="M14.382 23.1112C14.4931 23.0001 14.6042 23.0001 14.6042 22.889C15.0487 21.3335 16.7153 20.3335 18.2709 20.889C18.382 20.889 18.382 20.889 18.4931 21.0001C18.7153 21.1112 18.7153 21.0001 18.7153 20.889C19.8265 19.2223 22.1598 18.6668 23.8265 19.7779C24.9376 20.4446 25.4931 21.6668 25.4931 22.889C25.4931 23.1112 25.4931 23.1112 25.7153 23.1112C26.8265 23.5557 27.2709 24.889 27.0487 26.0001C26.8265 27.2223 25.7153 28.1112 24.382 28.1112H15.0487C13.8265 27.889 12.9376 26.889 12.8265 25.7779C12.7153 24.5557 13.2709 23.4446 14.382 23.1112Z" fill="black"/>
<path d="M22.7153 28.6667C22.6042 28.7779 20.0486 30.7779 19.9375 30.7779H21.7153C21.7153 30.889 17.1597 34.4445 17.0486 34.5556C16.9375 34.4445 18.3819 32.7779 18.6042 31.7779C18.1597 31.7779 16.4931 31.889 15.9375 31.889C15.9375 32.0001 19.0486 28.6667 19.0486 28.6667" fill="black"/>
</svg>
