<svg width="40" height="40" viewBox="0 0 40 40" fill="none" xmlns="http://www.w3.org/2000/svg">
<g clip-path="url(#clip0_324_43019)">
<path fill-rule="evenodd" clip-rule="evenodd" d="M20.1 3.7002L2.5 36.8002H37.7L20.1 3.7002Z" fill="white" stroke="black" stroke-width="2.8222" stroke-miterlimit="2.8222"/>
<path d="M20.9001 34.2998V30.2998H22.8001V34.2998H24.5001V16.7998H15.6001V34.3998H20.9001V34.2998ZM20.7001 18.3998H22.7001V20.3998H20.7001V18.3998ZM20.7001 21.3998H22.7001V23.3998H20.7001V21.3998ZM20.7001 24.2998H22.7001V26.2998H20.7001V24.2998ZM20.7001 27.2998H22.7001V29.2998H20.7001V27.2998ZM17.4001 18.3998H19.4001V20.3998H17.4001V18.3998ZM17.4001 21.3998H19.4001V23.3998H17.4001V21.3998ZM17.4001 24.2998H19.4001V26.2998H17.4001V24.2998ZM17.4001 27.2998H19.4001V29.2998H17.4001V27.2998Z" fill="black"/>
<path d="M12.0999 34.4004C10.0999 33.3004 9.29985 32.0004 9.69985 30.4004C9.79985 29.9004 10.0999 29.4004 10.1999 29.0004C10.5999 28.4004 10.6999 27.9004 10.6999 27.6004L10.7999 26.9004H10.9999L11.3999 27.4004C11.4999 27.6004 11.5999 27.9004 11.5999 28.1004C12.2999 27.0004 12.9999 25.8004 12.7999 25.0004L12.5999 24.4004L12.9999 24.5004C13.4999 24.7004 14.6999 25.2004 15.3999 26.5004C15.4999 26.6004 15.4999 26.7004 15.5999 27.0004C15.5999 26.9004 15.5999 26.9004 15.4999 26.8004L15.3999 26.0004L15.5999 25.8004L16.1999 26.2004C16.5999 26.4004 18.3999 28.4004 18.3999 30.5004C18.2999 32.1004 17.3999 33.2004 15.6999 34.1004L15.5999 34.5004L15.3999 34.3004C15.3999 34.3004 15.2999 34.2004 15.2999 34.1004V34.0004V33.9004L15.3999 33.8004C15.8999 32.8004 15.8999 31.6004 15.2999 30.5004L15.1999 30.3004C14.9999 29.9004 14.7999 29.7004 14.5999 29.5004C14.4999 30.1004 14.1999 30.9004 13.7999 31.5004L13.2999 32.0004H13.0999L13.1999 31.3004C13.0999 31.4004 13.0999 31.7004 12.9999 31.8004C12.5999 32.4004 12.2999 33.0004 12.8999 34.1004L13.3999 34.8004H12.2999V34.4004H12.0999Z" fill="black"/>
<path d="M12.9999 24.5004C13.3999 24.6004 14.6999 25.1004 15.3999 26.6004C15.5999 27.0004 15.7999 27.5004 15.8999 27.8004C15.9999 27.4004 15.8999 27.1004 15.7999 26.6004L15.5999 25.9004L16.1999 26.3004C16.5999 26.5004 18.3999 28.5004 18.3999 30.6004C18.2999 32.0004 17.4999 33.1004 15.7999 34.2004L15.6999 34.3004L15.5999 34.2004L15.4999 34.1004L15.2999 34.0004L15.4999 33.8004C16.1999 32.7004 15.9999 31.4004 15.3999 30.2004C15.0999 29.6004 14.8999 29.2004 14.3999 29.0004C14.3999 29.6004 14.1999 30.6004 13.4999 31.2004L12.9999 31.7004L13.0999 31.0004C13.0999 30.6004 13.0999 30.5004 13.0999 30.3004C12.9999 30.7004 12.7999 31.0004 12.5999 31.4004C12.1999 32.0004 11.8999 32.7004 12.4999 33.9004L12.8999 34.4004H12.1999C10.1999 33.3004 9.49988 32.2004 9.99988 30.6004C10.0999 30.1004 10.3999 29.6004 10.4999 29.2004C10.7999 28.5004 10.8999 28.1004 10.9999 27.7004L11.0999 27.0004L11.4999 27.5004C11.6999 27.9004 11.7999 28.3004 11.7999 28.7004C12.7999 27.3004 13.4999 26.1004 13.3999 25.1004C13.3999 24.8004 13.1999 24.7004 13.1999 24.7004L12.9999 24.5004ZM12.0999 23.9004L12.2999 24.5004L12.3999 24.9004C12.4999 25.6004 12.3999 26.8004 11.6999 27.8004C11.6999 27.7004 11.5999 27.6004 11.4999 27.3004L11.0999 26.7004L10.4999 26.8004L10.3999 27.5004C10.3999 27.9004 10.2999 28.4004 9.89988 28.9004C9.69988 29.4004 9.39988 29.8004 9.29988 30.4004C8.79988 32.1004 9.69988 33.5004 11.7999 34.6004H11.8999H11.9999H12.6999H13.1999L12.9999 34.1004L12.8999 33.5004C12.3999 32.6004 12.5999 32.3004 12.8999 31.7004L12.5999 31.6004L13.0999 31.8004L13.5999 31.3004C14.0999 30.8004 14.2999 30.2004 14.4999 29.6004C14.5999 29.7004 14.6999 30.0004 14.8999 30.1004L14.9999 30.3004C15.5999 31.3004 15.5999 32.5004 15.0999 33.5004L14.9999 33.7004L14.8999 33.8004V34.0004V34.1004C14.8999 34.2004 14.9999 34.5004 15.0999 34.5004L15.2999 34.7004L15.4999 34.5004L15.5999 34.4004C17.2999 33.4004 18.1999 32.2004 18.2999 30.6004C18.2999 28.2004 16.2999 26.3004 15.8999 26.0004L15.2999 25.6004L15.1999 26.0004C14.4999 24.9004 13.4999 24.5004 13.0999 24.4004H12.9999L12.3999 24.0004H12.0999V23.9004Z" fill="white"/>
</g>
<defs>
<clipPath id="clip0_324_43019">
<rect width="40" height="40" fill="white"/>
</clipPath>
</defs>
</svg>
