<svg width="40" height="40" viewBox="0 0 40 40" fill="none" xmlns="http://www.w3.org/2000/svg">
<g clip-path="url(#clip0_6_36297)">
<path d="M20.0068 1.90988L1.85791 20.0588L20.0068 38.2077L38.1557 20.0588L20.0068 1.90988Z" fill="white" stroke="black" stroke-width="2.50778" stroke-miterlimit="2.257"/>
<path d="M27.3353 20.3326H13.002V26.9992H27.3353V20.3326Z" fill="black"/>
<path d="M9.66846 20.777L20.0018 11.9992L30.224 20.777H9.66846Z" fill="black"/>
<path d="M15.6693 13.5547H13.3359V18.1102H15.6693V13.5547Z" fill="black"/>
<path d="M21.448 20.6659C21.5591 21.1103 21.8924 21.777 22.1146 22.3326L20.0035 22.8881C19.3369 20.6659 19.2257 20.777 19.3369 20.4437C19.448 20.2215 20.0035 19.8881 21.3369 18.4437C21.448 18.3326 21.448 18.2215 21.448 18.2215L20.8924 17.1103C20.8924 16.9992 20.6702 16.8881 20.6702 16.777C20.3369 16.1103 20.2257 16.3326 20.8924 15.6659L22.6702 13.6659L24.2257 15.1103L23.1146 16.5548C23.0035 16.6659 23.0035 16.777 23.1146 16.777L23.7813 18.6659" fill="white"/>
</g>
<defs>
<clipPath id="clip0_6_36297">
<rect width="40" height="40" fill="white"/>
</clipPath>
</defs>
</svg>
