<svg width="40" height="40" viewBox="0 0 40 40" fill="none" xmlns="http://www.w3.org/2000/svg">
<g clip-path="url(#clip0_6_38717)">
<path d="M20.1115 37.9998C30.114 37.9998 38.2227 29.8912 38.2227 19.8887C38.2227 9.88618 30.114 1.77756 20.1115 1.77756C10.109 1.77756 2.00043 9.88618 2.00043 19.8887C2.00043 29.8912 10.109 37.9998 20.1115 37.9998Z" fill="white"/>
<path d="M20.1118 3.66579C29.1118 3.66579 36.334 10.9991 36.334 19.888C36.334 28.7769 29.0007 36.1102 20.1118 36.1102C11.2229 36.1102 3.88954 28.7769 3.88954 19.888C3.88954 10.9991 11.1118 3.66579 20.1118 3.66579ZM20.1118 0.221344C9.11176 0.221344 0.333984 9.11023 0.333984 19.888C0.333984 30.6658 9.22287 39.6658 20.1118 39.6658C31.0007 39.6658 39.8895 30.7769 39.8895 19.888C39.8895 8.99912 31.1118 0.221344 20.1118 0.221344Z" fill="#D6001C"/>
<path d="M19.6672 27.0006L10.2228 22.334V28.4451L19.6672 32.6673L29.1117 28.4451V22.334L19.6672 27.0006Z" fill="black"/>
<path d="M34.4448 17.8889L19.667 10.7778L5.00034 17.8889L19.667 25L30.8892 19.5555V25.8889H32.667V18.6667L34.4448 17.8889Z" fill="black"/>
<path d="M31.889 6.33322L8.11121 33.7777" stroke="#D6001C" stroke-width="3.13478" stroke-miterlimit="2.8213"/>
</g>
<defs>
<clipPath id="clip0_6_38717">
<rect width="40" height="40" fill="white"/>
</clipPath>
</defs>
</svg>
