<svg width="40" height="40" viewBox="0 0 40 40" fill="none" xmlns="http://www.w3.org/2000/svg">
<path fill-rule="evenodd" clip-rule="evenodd" d="M19.9408 4.77783L2.60742 37.4445H37.2741L19.9408 4.77783Z" fill="#D6001C"/>
<path fill-rule="evenodd" clip-rule="evenodd" d="M19.9402 1.43274L39.8804 39.0124H0L19.9402 1.43274ZM19.9402 8.12289L5.21376 35.8766H34.6667L19.9402 8.12289Z" fill="black"/>
<path d="M14.2726 23.1112C14.3837 23.0001 14.4949 23.0001 14.4949 22.889C14.9393 21.3335 16.606 20.3335 18.1615 20.889C18.2726 20.889 18.2726 20.889 18.3837 21.0001C18.606 21.1112 18.606 21.0001 18.606 20.889C19.7171 19.2223 22.0504 18.6668 23.7171 19.7779C24.8282 20.4446 25.3837 21.6668 25.3837 22.889C25.3837 23.1112 25.3837 23.1112 25.606 23.1112C26.7171 23.5557 27.1615 24.889 26.9393 26.0001C26.7171 27.2223 25.606 28.1112 24.2726 28.1112H14.9393C13.7171 27.889 12.8282 26.889 12.7171 25.7779C12.606 24.5557 13.1615 23.4446 14.2726 23.1112Z" fill="white"/>
<path d="M19.4946 28.6667C19.3835 28.7779 16.8279 30.7779 16.7168 30.7779H18.4946C18.4946 30.889 13.939 34.4445 13.8279 34.5556C13.7168 34.4445 15.1612 32.7779 15.3835 31.7779C14.939 31.7779 13.2724 31.889 12.7168 31.889C12.7168 32.0001 15.8279 28.6667 15.8279 28.6667" fill="white"/>
<path d="M24.8286 28.6667C24.7174 28.7779 22.1619 30.7779 22.0508 30.7779H23.8286C23.8286 30.889 19.273 34.4445 19.1619 34.5556C19.0508 34.4445 20.4952 32.7779 20.7174 31.7779C20.273 31.7779 18.6063 31.889 18.0508 31.889C18.0508 32.0001 21.1619 28.6667 21.1619 28.6667" fill="white"/>
</svg>
