<svg width="40" height="40" viewBox="0 0 40 40" fill="none" xmlns="http://www.w3.org/2000/svg">
<path fill-rule="evenodd" clip-rule="evenodd" d="M20.0001 4.77832L2.66675 37.2228H37.3334L20.0001 4.77832Z" fill="white" stroke="black" stroke-width="3.13478" stroke-miterlimit="2.8213"/>
<path d="M32.0001 29.0002C32.0001 29.0002 19.7778 31.5558 19.6667 27.8891C19.5556 25.0002 21.4445 24.2225 22.1112 24.0002C24.1112 23.3336 26.3334 24.6669 27.6667 25.6669C28.6667 26.4447 24.2223 19.8891 20.0001 21.0002C13.4445 22.778 12.3334 26.4447 8.77783 26.0002L20.4445 37.4447L32.0001 29.0002Z" fill="black"/>
<path d="M35.6666 36.3333L31.9999 29L20.2222 37.3333L35.6666 36.3333Z" fill="black"/>
<path d="M8.66656 26L3.44434 36.1111L20.2221 37.3333L8.66656 26Z" fill="black"/>
</svg>
