<?xml version="1.0" encoding="utf-8"?>
<!-- Generator: Adobe Illustrator 26.2.1, SVG Export Plug-In . SVG Version: 6.00 Build 0)  -->
<svg version="1.1" id="Layer_1" xmlns="http://www.w3.org/2000/svg" xmlns:xlink="http://www.w3.org/1999/xlink" x="0px" y="0px"
	 width="850px" height="425px" viewBox="0 0 850 425" style="enable-background:new 0 0 850 425;" xml:space="preserve">
<style type="text/css">
	.st0{fill:#005590;}
	.st1{fill:#7CA765;}
	.st2{fill:#F7941D;}
</style>
<rect x="153.9" y="137.27" class="st0" width="189.95" height="189.97"/>
<path class="st1" d="M282.06,115.08c0,0-2.02-7.49-3.38-9.9c-1.36-2.41,0.71-0.84,1.25,0.08c0.53,0.91-3.83-4.99-3.55-6.94
	c0.27-1.94-0.41-5.99-2.17-4.93c0,0-0.65,0,0,0.4c0.65,0.4,0.57,1.25,0,0.6c-0.57-0.65-2.35-2.8-3.06-1.57c0,0-1.04,0.25-0.18,0.85
	c0.86,0.6,1.33,0.84,2.49,3.47c0.2,0.45,0.51,0.84,0.91,1.12c0.53,0.36,0.8,0.99,0.7,1.62c0.15,0.96,0.64,1.84,1.36,2.49
	c0.53,0.2,2.78,7.33,2.59,8.52c-0.21,1.57-0.05,3.18,0.47,4.68c0.49,1.01-0.2,1.01-0.81-1.1c-0.51-2.19-1.29-4.31-2.31-6.33
	c-1.41-2.76-1.25-5.37-3.74-7.11c-2.49-1.75-2.21-3.59-4.04-3.06c0,0-0.47,0.06,0.2,0.7c0.67,0.64,1.15,0,1.96,1.94
	c0,0,0.27,1.33-0.51,1.39c-0.78,0.05,1.71,2.32,2.22,3.47c0.51,1.15,2.12,3.67,1.84,4.54c-0.27,0.88-1.88-2.12-3-4.59
	s-2.13-4.03-3.94-4.23c0,0-0.19,0.41,0.33,0.65c0.51,0.24,0.64,0.41,0.65,1.25c0.02,0.84-0.26,1.88,0.77,2.2
	c1.04,0.31,0.96-0.31,1.25-0.16c1.12,1.09,1.58,2.68,1.25,4.21c-0.3,2.32-0.12,4.68,0.53,6.92c0.37,0.82,2.06,3.51,1.6,4.43
	c-0.46,0.92-0.14,1.33,1.25,0.85c1.39-0.49,2.29,0.12,0.63-3.1c-1.67-3.22-2.23-1.01-1.11-2.35c1.12-1.35-0.29-3.42-0.57-4.38
	c-0.29-0.96,0.55-0.77,0.78-0.19c0.24,0.59,0.9,3.74,1.73,4.09c0.84,0.35,1.49,4.13,0.91,5.57c-0.57,1.43,0.33,1.97,0.33,1.97
	s-0.35-0.66-1.43,0c-1.08,0.66-4.27,2.59-2.66,4.08s1.17,1.59,0.9,1.59c-0.27,0-1.56-0.94,0,0.91s2.49,2.16,2.8,2.66
	c0.3,0.5-0.33-0.84,0.29-1.15c0.63-0.31,1.16,2.22,0.69,2.59c-0.47,0.37-0.49,4.47,1.36,5.37c1.84,0.9,6.92,2.73,7.19,2.02
	c0.34-3.57-0.3-7.16-1.87-10.39c-2.1-3.63-1.46-6.71,1.77-8.13c0,0,1.25-0.19,1.45,1.35s2.61-4,7.84-4.07c0,0,1.6-0.88,0.6-1.08
	s2.92-1.57,1.17,0.53c-1.75,2.11,2.2,0.21,3.11-0.64c0.91-0.85,2.94,0.92,3.1,1.43c0.15,0.51,0.85-1.25,0.08-1.84
	c-0.77-0.6,4.43-2.72-0.18-1.78c-4.6,0.94-2.69-0.18-6.5,0.57c-3.8,0.75-10.07,2.28-4.12-0.26c5.95-2.55,6.85-2.49,8.03-3.45
	c1.18-0.94,6.24-2.02-0.49-2.04c-6.72-0.02-2.49,2.49-16.03,7.27c0,0-3.33,0,1.43-1.96c0.83-0.71,1.54-1.56,2.1-2.49
	c0.81-1.49,0.64-0.2,1.25,0.27s1.7-0.5,2.83-0.98c1.14-0.49,0.7-0.16,0.74,0.22c0.04,0.39,2.2-1,2.58-1.49
	c0.39-0.5,5.37-3.22,6.24-2.94c0.86,0.29,0.98-1.78-4.37,0.49c0,0-0.91,0.33-0.96,0.66c0.01,0.1,0.08,0.19,0.18,0.22
	c0.16,0-0.6,1.17-1.81,0.77c-1.21-0.4-1.25,0.33-3.08-0.19c-1.81-0.28-3.65,0.29-4.99,1.53c-0.88,0.82-1.65,1.57-2.23,1.6
	c-0.59,0.02-0.12,2.22-1.62,1.97C281.55,116.12,282.06,115.08,282.06,115.08z"/>
<path class="st2" d="M242.2,111.46c1.93,1.74,3.67,3.69,5.19,5.8c0.7,0.68,1.61,1.09,2.58,1.16c1.98,0.37,6.37,1.53,6.99,2.94
	c0.61,1.39-1.67-0.35-1.94,0.72c-0.26,1.08,2.07,0.91,3.28,1c1.21,0.09,8.67,5.51,10.25,5.99c0.44,0.05,0.85-0.24,0.94-0.67
	c0.27-0.8,2.49,1.08,2.13,1.49c-0.36,0.42-0.14,0.31,0.24,0.6c0.37,0.29,5.58,2.12,5.92,3.21c0.33,1.08-1.25,1.63,0,2.17
	c1.25,0.53,15.19,6.85,17.23,6.05c2.04-0.8,0.94,0.24,0.85,0.33c-0.09,0.09-2.31,2.23,0.78,2.42c3.1,0.19,2.65,0.39,2.9,0.65
	c0.26,0.26-4.14,1.57,2.22,1.65c0,0,1.97-0.22,1.1,0.91c-0.88,1.14-1.25,1.62,0.21,1.76c1.46,0.14,1.25,0.12,0.53,1.46
	c-0.71,1.33-2.01,4.8-3.9,4.92c0,0-0.53,0.46-0.37-0.71c0.16-1.17-0.37-0.16-0.7,0.8c-0.33,0.96-1.46,2.31-1.94,1
	c-0.47-1.31-1.53,0-1.8,0.27c-0.27,0.27-2.18-0.9-4.48-3.86c-2.29-2.96-1.86-2.15-3.23-2.01c-2.5,0.56-5.11,0.35-7.49-0.61
	c-3.41-1.49-9.45-1.41-7.17,0c2.27,1.41,9.01,0.65,10.9,2.01c1.9,1.36,5.76,2.16,4.03,3.49c-1.73,1.33-2.35-0.75-2.49,0.46
	c-0.14,1.21,0.46,2.41-1.17,1.65c-1.63-0.76-1.25-2.9-7.05-2.66s-10.99-4.65-6.44-0.41s3.64,0.33,8.36,3.98
	c4.72,3.64,5.37,2.11,7.19,1.78c1.82-0.33-0.67,1.59,1.84,1.47c2.52-0.11-1.08,3.8-3.18,2.11s0.25,2.02,3,2.37s-4.6,4.18-4.99-1.04
	c0,0-4.51-5.19-6.94-3.37s0.26-0.25,5.12,3.19c0,0,0.19,0.76-0.67,0.75c-0.86-0.02,3.31,1.56-1.49,1c-4.79-0.56,0.43,1.11,3.86,1.81
	c3.42,0.7,2.84-1.25,4.63,1.42c1.78,2.67,0,1.84-1.88,1.97c-1.88,0.14-1.84,1.43-8.64-1.25c-6.8-2.68-8.7-0.57-3.21,1.31
	c5.49,1.88,8.01,2.49,8.26,3.66c0,0,0.29-0.63,2.49,0.35c2.21,0.98,6.08-0.1,5.27,1.71s0.51,2.31-1.35,2.88
	c-0.28,0.02-0.51-0.19-0.53-0.46c0-0.05,0-0.09,0.01-0.14c0.1-0.6-0.77,0-0.41,1.51s0,0.43-0.36,0.85
	c-0.36,0.43,3.41,2.06,5.39,2.69c1.98,0.64,0,0.86-1.84,0c-1.84-0.86-1.87,0.43,1.15,1.25c3.02,0.82-3.63,0.26-6.81-1.32
	c-3.18-1.59-5.29-0.4-10.6-3.86c-5.31-3.45-14.41-6.24-16.05-6.06c-1.65,0.18,1.94,1.39,4.19,2.49c2.25,1.1,1.16,0.8,1.84,1.53
	c1.8,1.49,4.02,2.43,6.35,2.68c2.39,0,2.83,0,3.86,0.66c1.03,0.66-0.43,1.82,2.21,1.49c2.64-0.33-0.12,1.06,2.49,1.11
	s2.11-0.72,1.14,1.94c0,0-0.37,0.2,0.65,0c1.02-0.2,1.17-0.47,0.91,0.53c-0.26,1,0.65,1.62,1.49,1.77s-0.24-0.3,1.57,0.49
	c2.6,1.39,5.32,2.56,8.12,3.48c0,0,0.77,0.08-0.24,0.94c-1.01,0.86-1.08,1.1-0.6,1.25c0.47,0.15-0.3,0.37-2.49-0.35l-2.15-0.74
	c0,0-0.7,0.56,0.61,0.94c1.31,0.39-0.22,2.01-0.43,2.06c-0.2,0.05-3.27-1.72-3.74-3.48c-0.47-1.76-2.83-3.86-3.33-2.86
	c-0.5,1.01-1.82,3.06-2.49,2.69c-0.67-0.36-1.62,1.37-1.45,1.84c0.18,0.46-1.71,0.56-3.74-0.71c-2.04-1.27-2.49-2.27-4.45-1.92
	c-1.94,0.35,0.78-2.32,1.37-2.26c0.59,0.06,1.32-0.67-0.98-1.18c-2.31-0.51-0.18,0.64-1.66,2.49s0.15-0.88-4.99-1.56
	c-5.13-0.68-7.05-2.04-6.39-3.08s5.96,0-2.88-4.19c-8.84-4.19-9.06-4.99-9.38-3.84c-0.32,1.15,4.45,1.01,4.74,3.27
	c0.3,2.26-1.86,1.92,1.01,1.56c2.87-0.36,4.99,0.49,4.99,1.25c0,0.76-1.6,4.73-2.35,2.8c-0.75-1.94-2.8-1.14-3.83-1.84
	c-1.02-0.7-1.17-0.46-1.05-1.25s-0.98,1.04-1.32,0.66c-0.33-0.37-0.06-1.72-2.96-3c0,0,0.7-0.61,0-1.08
	c-0.7-0.47,0.24,1.25-0.47,0.14c-0.71-1.11-1.84-0.43-1.6-2.01c0.24-1.57-0.37-1.61-1.42-2.32c-1.05-0.71,1.25-0.53,1.45-0.24
	s1.01,0.98,1.17,0.33c0.16-0.65-3.62-3.49-7.64-4.41c0,0,1.05-1.08-0.61-2.32c-1.66-1.24-6.84-0.94-7.68-0.4s-1.51,1.76-1.6-1.37
	c0,0-2.92-0.9-3.74,0.29c-0.82,1.18-0.15-1.04-2.72-1.08c-2.57-0.05-2.88,1.47-2-1.67c0.88-3.14-2.87,2.96-2.78-0.7
	c0.09-3.66-0.25-7.84,1.76-5.6c0,0,1.14,0.98,0.43-1.25c-0.7-2.22,0.82-2.29,1.36-1.88c0.53,0.41,1.25,0.81,1.6-0.69
	c0.35-1.49,1.01-0.41,2.42-0.06c1.41,0.35,3.57,1.02,3.88,1.76c0.31,0.74,0.77,0.21,2.02,0.19c1.25-0.02,4.76-1.01,3.19,1.14
	c-1.57,2.15-0.96,0.43-2.11,1.42c-1.15,1,0.39,1.65,2.41,1.46s0.47-2.49,0.74-2.9s1.45-0.74,3.93,0.29c2.49,1.02,0.91,0.19,1-0.77
	c0.09-0.96,1.25,1.41,1.46,1.8c0.21,0.39,9.52,2.04,10.66,1.25s-1.25-0.66,1.62-1.57c0,0,0.09-2.06,2.74-0.37
	c2.66,1.68,2.59,1.11,3.45,0.4c0.85-0.71-0.49,2.68-0.98,2.74c-0.5,0.06,0.94,0.84,1.39-0.94s0.33-1.57,2.07-1.56s4.03,1.56,7.11,0
	c3.08-1.56,1.16,2.06,0.11,2.49c-1.05,0.43-0.33,1.84,2.32,1.61c2.66-0.22,1.88,2.27,6.68,1.15c4.79-1.12,0.88-0.81,0.11-1.08
	c-0.77-0.26-2.33-0.96-2.2-2.16c0.13-1.2-4.99,2.04-4.53-0.35c0.46-2.39,0.2-3.23,2.32-2.35s2.41-2.49-2.35-2.56
	c-4.75-0.06-4.41,0.47-5.39-0.45c-0.98-0.92-4.88-3.18-8.36-1.49c-3.48,1.68-4.31,3.02-4.03,0.22c0.29-2.8-2.49,0.98-2.8,1.25
	c-0.3,0.26,0.51-1.94-0.98-0.69c-1.49,1.26-1.92,1.49-1.39-1.05c0.53-2.54-0.96,0-1.45,0.53c-0.49,0.53-0.51,0.09-0.27-5.65
	s-1.15,0.7-2.49-1.25c-1.35-1.94,0-1.1-1.63-0.81s-2.37,0.12-1.06-1.41c1.31-1.53-2.76,1.53-1.25-1.57
	c1.51-3.11,0.76-7.26,2.42-4.99c1.66,2.27-1.53-3.86,2.33-2.65c3.86,1.22-2.27-2.22,2.74-0.37c-0.02,0.94,0.72,1.71,1.66,1.73
	c0.09,0,0.18,0,0.26-0.02c1.86-0.12,3.86-0.78,0.64,2.37c0,0-0.15,1.81,0.98,1.08c1.14-0.72,0.43-2.73,1.46-2.82
	s3.22,1.39,4.99,0.74c1.77-0.66,6.24,0.53,6.37,1.25c0.14,0.72-3.74,2.63-2.07,2.49c1.67-0.14,4.19,0.63,3.41-2.41
	c-0.78-3.03-0.19-0.3-4-3.37c-3.8-3.07-6.05-7.23-12.14-7.78c-6.09-0.56-3.57-1.9-6.14-1.91c-2.57-0.01,0-2.08,2.21-0.61
	c2.21,1.47,2.98,0.33,4.59,0c1.61-0.33,3.35,2.82,7.2,3.25s8.35,5.66,8.58,6.47c0.24,0.81,1.61,1.65,3.67,1.53
	c2.06-0.12,4.74,0,3.82,2.49c-0.92,2.49,1.86,1.72,3.86,0.31c2.01-1.41-14.81-10.8-20.36-12.27c-5.55-1.46-7.88-3.38-13.3-6.51
	c-5.43-3.13,4.9-0.15,9.06,0.55c4.15,0.7,5.24,3.45,9.87,4.64s12.03,7.37,4.02-0.22c-8.01-7.6-6.35-3.07-15.07-8.52
	c-8.72-5.45-14.19-4.35-7.4-6.85c0,0,1.43,2.02,2.07,0.7c0.64-1.32-2.87-2.35,0.16-2.94"/>
<path class="st2" d="M222.43,174.69c0,0-1.94-3.63-3.28-3.63c-1.35,0-1.35,1.84-0.84,2.26c0,0,2.66,1.25-1.11,0.12
	c0,0-2.77-1.16-2.93,1.25c-0.16,2.41,0.63-0.18,3.14,1.57c2.52,1.75,14.23,7.27,16.03,8.9c0,0,2.87-0.67-2.17-2.59
	c-5.04-1.92-0.55-1.15,0.26-1.02c0.81,0.12,3.62-0.76,0.18-2.02c-3.44-1.26-6.76-1.6-7.39-2.69c-0.63-1.1,1.05-1.84,1.25-1.73
	c0.2,0.12-0.25-2.22-2.37-0.49C223.19,174.6,222.9,175.36,222.43,174.69z"/>
<path class="st2" d="M236.77,186.44c0,0,0.39-0.71,2.21,0.08c1.82,0.78-1.78-1.25-2.13-2.49s2.07,0.3,3.84,1.51
	c1.77,1.21,11.55,6.85,12.89,6.92c1.33,0.08,1.25,1.86,0.57,2.28c-0.67,0.43,0.76,1.63,2.72,1.27c1.96-0.36,11.86,5.78,14.85,6.04
	c2.98,0.26-0.31,2.23,3.08,2.06c3.39-0.18,5.65,3.25,4.29,4.22c-1.36,0.96-0.27,1.08,1.05,0.85c1.32-0.24-1.43,5.98-3.74,6.64
	c-2.31,0.66-0.12-1.7-2.29,1.53c-2.17,3.23-2.78-3.25-9.66-5.61c0,0-1.08-0.5,0.81-1.71c1.88-1.21,1.35-1.1-0.88-1.17
	c-2.23-0.08,0.46,3.74-4.62,2.61c-5.08-1.14-8.84-3.33-8.07-1.25c0.76,2.08,0.57,0.29,6.24,2.07c5.66,1.78,3.9,0.15,5.89,2.25
	c1.98,2.1,1.25,0.76-1.32,1.72c-2.57,0.96,0.86,2.04-0.51,2.39s-2.02-3.51-14.62-4.99c0,0-4.86,0,0.85,1.96
	c5.7,1.96,3.17,2.01,4.43,1.97c1.26-0.04,1.37-1.1,2.2,0c0.82,1.1,1.02,2.01,5.18,2.62c4.15,0.61,2.57-0.72,3.35,0.14
	c0.77,0.86-1.7,0.36,0,1.33c1.7,0.98,1.36-0.59,0.77,1.35c-0.59,1.94-2.49,0.77-3.27,1.35c0,0-0.49,0.7,1.75,0.67
	c2.24-0.02,1.81-0.27,1.42,0.75c-0.39,1.02-0.55,0.82,0.49,0.66c1.04-0.16-1.25,1.7-3.59,1.42c-2.35-0.27,1.17-2.62-4.37-4.99
	c-5.54-2.37-4.21-1.33-4-0.9c0.21,0.43,4.47,1.41,4.25,2.87c-0.21,1.46,0.81,0.35,1.17,1.39c0.36,1.05-1.25,0.69-2.49,0.69
	s-0.98,0.08-1.87-1.36s-2.1,0.41-3.66-1.12c-1.56-1.53,0.59-2-2.13-1.25s-3.32,1.25-2.8-2.16c0.52-3.41,0-0.82,1.63-0.98
	c1.63-0.16,3.74-0.26,0.59-1.9c-3.16-1.63-3.67,0.78-6.85-0.96c-3.18-1.75-5.55-2.9-8.08-1.65c-2.53,1.25-11.59,4.09-12.4-3.12
	c-0.81-7.21-3.74-2.49-5.8-5.76c-2.06-3.27,1.55-10.12,5.17-9.52s0.19,3.1,4.24,2.49c4.06-0.6-0.1,0,0.25,2.49
	c0.35,2.49,0.45-1.16,3.19-2.49c2.74-1.33,1.1,2.49,9.22,1.76c0,0-2,2.74,0.7,2.63c2.69-0.11,1.17-1.35,1.05-3.51
	c-0.12-2.16-2.69-1.08-4.74-3.35c-2.04-2.27-3.86-1.82-5.17-5.5c-0.39-0.34-0.75-0.71-1.08-1.11c-0.6-0.71,0.88-0.11,1.82,0.15
	c0.94,0.26,2.63,2.67,4.53,2.83s6.33,3.28,5.65,4.33c-0.68,1.05-0.39,0.75,0.96,0.77c1.35,0.02,7,1.08,7.09,2.08
	c0.09,1-2.06,3.31-0.47,2.97c1.59-0.33,4.9-0.66,3.84-2.31c-1.06-1.65-5.92-5.09-10.17-6.24c-4.25-1.15-10.63-4.06-13.16-6.43
	c-2.53-2.37-5.08-2.23-8.15-3.9c-3.07-1.66-8.9-2.49-3.45-2.07c5.44,0.43,2.32-0.22,1.25-0.75s3.74,0.24,8.46,1.7
	c4.72,1.46,7.88,4.82,10.84,5.37c2.97,0.56,5.69,2.74,7.04,3.17c1.35,0.43,0.53-0.4-0.8-1.36c-1.32-0.96-3.06-1.73-3.47-2.92
	c-0.41-1.18-1.71-1.16-2.04-1.25C236.38,186.67,236.58,186.59,236.77,186.44z"/>
<path class="st2" d="M223.05,187.69c0,0-7.19-1-7.88,0c-0.7,1,2.12-0.09,3.45,1.43c1.32,1.52-1.25-0.3-1.76,0
	c-0.51,0.3,1.51,2.61,4.35,1.77C224.05,190.06,223.68,188.52,223.05,187.69z"/>
<path class="st2" d="M254.38,231.42c7.95,2.49,12.04,0.66,10.8,0.41c-1.23-0.25-0.33-1.67-1.42-1.65c-1.09,0.02,5.14-0.85-0.06-1.25
	c-5.2-0.4-2.07,2.06-7.49-0.33c-5.42-2.39-4.33-1.41-8.07-1.9c-3.74-0.49-8.42-0.84-6.11-2.62s1.25-3.35,1.25-3.35
	c-2.97-0.27-5.96-0.12-8.9,0.43c0,0-1.04,0.22-1.08,0c-0.04-0.22,0,3.39-0.66,2.84s0.66-2.57-0.46-2.93
	c-1.12-0.36-1.11,0.69-2.22,0.2c-1.11-0.49-1.57-1.84-3.13-1.62c-1.56,0.21,0.55,1.57-0.67,1.88c-1.22,0.31-1.56,0.29-1.25,1.25
	c0,0,0.65,1.17-9.53-2.12c-0.5-0.15-1.04,0-1.39,0.39c-0.47,0.69-0.59-2.77-1.86-0.51c0,0-0.47,0.57-2.71-0.67
	c-2.23-1.25-1.9,1.32-1.77,2.57c-0.7,0.43-1.57,0.43-2.27,0c0,0-1.63-0.69,0.19-0.71c0,0,2.86-2.16,0.14-2.87
	c0,0-2.63,0.6-3.74-0.11c-1.11-0.71-5.68-3.29-6.24-2.32c-0.56,0.98-0.2,2.08-1.96,1.25s-1.49,1.05-1.6,3.17
	c-0.11,2.12-0.94-3.55-1.92,0.78c-0.98,4.34-1.05,7.17,1.32,5.44c0,0,1.77-1.35,1.02,1.14c-0.75,2.49-0.25,0.43,2.63,0.67
	c2.88,0.25-0.2,1.14,1.87,1.08c2.07-0.05,4.39-2.16,4.82-0.09c0.43,2.07-0.76,1.72,1.96,1.04c2.72-0.69,7.7-0.6,7.23,1.87
	s4.41,0,9.15,4.99c0,0,8.74,6.09,14.15,7.61c0,0,4.37,3.1-0.94,1.65c-0.84,0.29-1.77-0.04-2.25-0.78c-0.82-1.25-1.66-1.65-3.8-1.68
	c-2.15-0.04-2.35,0.16-2.71-1.72s-0.81-0.33-3.53-2.62c-2.72-2.28-3.72-3.03-5.74-3.16c-2.02-0.12-0.7,0.3,1,1.45
	c1.7,1.15,2.67,2.39,0.21,1.53c-2.45-0.86,1.47,2.27,3.74,3.12s1.7,2.11,2.41,3.08c0.71,0.98,0.75-0.1,3.74,1.36
	c3,1.46,2.49-0.47,7.94,1.97c5.44,2.45,9.09,3.42,9.98,3.11c0.88-0.31,0.43-3,1.47-2.94c1.05,0.05,1.82,0.8,1.35,1.39
	c-0.47,0.6-2.37,0.16-1.77,2.74c0.6,2.58,0.65-1.96,4.55,1.68c3.9,3.64,6.7-2.43,7.17-3.74s2.39,3.31,7.29,5.98
	c0,0,1.77-1.49,0.29-2.42c-1.49-0.93-0.98-0.61,0.39-0.37c1.36,0.24,4.24,1.84,4.54-0.49s-0.41-0.19-3.45-1.92
	c-3.03-1.73-8.74-3.03-7.84-4.31s-0.14-0.78-1.45-0.86c-1.31-0.08-0.12-0.96,0.6-1.53c0.72-0.57-0.49-0.91-3.04-0.77
	c-2.56,0.14,2.26-1.55-1.91-0.6c0,0-2.06,0-0.86-1.55c1.2-1.55-2.01,0.2-3.12-0.47c-1.11-0.67-6.59-0.67-13.82-6.85
	c0,0,0.09-1.11,1.87,0c4.14,2.05,8.43,3.83,12.82,5.3c3.74,1.25,13.23,6.6,16.88,3.52c0,0,0.31-0.47-1.65-0.53
	c-1.96-0.05-11.92-2.72-10.56-4.88c1.36-2.16,0.2,0.24,3.96,0.66c0.28,0.2,0.41,0.55,0.35,0.88c-0.14,0.56-0.16-0.24,0.57-0.14
	c0.74,0.1,0.37-1.08,1.37,0.1s0.43-0.67,2.49,1.59c2.07,2.26,0.26,0,1.82-0.98c1.56-0.98,4.23-4.03-0.6-3.64s-10.25-2.76-12.62-4.29
	s-6.61-2.9-1.9-2.35L254.38,231.42z"/>
<path class="st2" d="M228.66,254.92c0,0,1.92-1.46-0.61-2.49c-2.53-1.04-6.57-2.94-6.74-4.1c-0.16-1.17-1.08,0.59-1.08,0.59
	s-6.78-2.76-8.62-5.19s-2.49-0.22-0.88,0.7c1.61,0.92,4.25,2.67,2.49,2.07c-1.76-0.6-3.31-2.27-3.13-1.55
	c0.18,0.72,2.33,1.84,1.25,1.53c-1.08-0.33-8.84-5.59-6.33-5.08c2.51,0.51,2.49,1.78,3.12,1.49c0.63-0.29-2.04-2.49-0.43-1.92
	c1.61,0.57,1.25-0.55-1.77-1.47c-3.02-0.92-5.18-1.06-6.74-2.72s-4.45-6.08-5.49-5.37c-1.05,0.7-0.81,1.36-0.11,1.91
	s0.91,1.02-1.15,0.51c-2.06-0.51-3.31-1.92-3.11,1.37c0,0-0.59,0.43,0.46,0.71c1.05,0.29,0.6-0.09,6.69,2.84
	c5.96,2.98,11.66,6.44,17.07,10.35c4.62,3.27,7.13,5.64,0.64,1.91c-6.5-3.73-15.77-8.12-20.38-7.98c-4.62,0.14-6.75,0.53,0.12,3.67
	c6.88,3.14,3.45-0.94,8.03,1.91c4.59,2.84,9.8,6.88,13.19,7.36c3.38,0.47,4.41,2.35,7.62,4.18c3.22,1.82,4,2.37,0.08,2.42
	c-3.92,0.05,3.61,3.43-2.1,1.36c-5.7-2.07,6.7-2.37-4.41-4.58c0,0-2.87,0.11-2.49-1.39c0.37-1.51-1.59-1.75-4.34-2.94
	c-2.76-1.2,1.25-1.61-4.09-3.18c0,0-3.74-4.06-15.23-3.83c0,0-2,0.71,1.9,1.53c3.9,0.81,4.07-0.61,5.3,1.33c0,0,0.1,0.67,0.9-0.66
	c0.8-1.33,2.96,0.41,3.47,1.76c0.84,1.8,2.28,3.24,4.07,4.1c1.39,0.35,4.51,2.43,4.99,3.83c0.48,1.4,0.39,1.86,1.08,1.67
	c0.7-0.19,3.84-0.69,0.55,3.21c0,0-3.14,1.49-2.16-0.06c0.98-1.56,3.06-2.71-3.45-3.58c-6.51-0.88-6.15-2.39-7.11,1.32
	c0,0-2.94,1.49-0.94-0.55c1.98-2.04,1.16-2.97-1.41-2.8c-2.57,0.16-3.88-0.61-4.12-1.53c-0.24-0.91-0.9-1.25-2.31,2.32
	s-2.86,6.13-1.61,9.43c0,0,0.14,1.05,3.22,0c3.08-1.05,2.25-0.12,2.06,1.97c-0.19,2.1-0.9,8.97,3.96,6.45
	c4.86-2.52,3.43-0.75,3.45-0.08c0.02,0.67,0,0.91,2.01-0.59c2.01-1.49,8.19-1.47,9.23,0.14s2.26,0.59,2.62,0.56
	c1.66-0.23,3.36,0.22,4.69,1.25c2,1.66,4.76-0.6,2.49,2.12c0,0-0.9,1.8,2.21,1.11c3.11-0.69,4.8-0.57,6.59,2.01
	c1.78,2.58,3.58,4.12,4.14,1.86s0.91-1.01,1.78-1.42c0.88-0.41,2.92-2.32-0.2-3.59c-3.12-1.27-1.36,1.53-7.49-2.1
	c-6.13-3.63-5.31-2.77-8.39-3.63c-3.07-0.86-1.72-1.25,1.56-0.98c3.28,0.26,3,1.94,6.37,1.39c3.37-0.56,2.68,1.37,5.08,1.75
	s2.35,1.55,2-0.55c-0.36-2.1,1.39-0.51,2.72-0.82s-4.78-3.94-9.29-4.41c-4.51-0.47-17.23-2.77-14.68-4.59c0,0,1.25-2.1,1.25-0.14
	c0,1.96,1.25,0.53,2.33,0.51c1.08-0.02,2.49-0.2,3.57,1.06c1.08,1.26,3.61,2.87,7.68,2.33c4.07-0.54,5.44,0.25,6.98,1.06
	c1.53,0.81,2.72-1.84,2.35-3.06c-0.36-1.22,1.75-0.09,1.41,1.61c-0.34,1.7-2.84,1.32-0.61,2.21c2.23,0.88,5.12,4.57,5.12,4.57
	s11.78-2.49,9.6-7.64c0,0-2.76,0.27-0.55-1.87c2.21-2.15-0.18-0.36-3.1-1.68c-2.92-1.32-6.15-1.05-4.12-3.1
	c2.03-2.05-0.85-0.71-3.14-1.49c-2.29-0.77-11.95-1.61-13.91-4.99C230.26,256.48,226.72,256.64,228.66,254.92z"/>
<path class="st1" d="M255,304.17c-2.2-0.4-22.69-6.02-22.24-9.98s5.85-1.05,25.44-14.87c19.58-13.82,17.28-12.4,19.17-14.17
	c1.88-1.77,0.29,0.66-0.91,1.94c-1.2,1.27-14.45,13.6-19.79,16.44c-5.34,2.84-18.81,12.99-18.5,13.54c0.31,0.55,1.41,2.42,3.17,2
	c1.76-0.43-1.8-1.84,1.12-2.39c2.92-0.56,1.7,0.77,3.25-0.11c1.56-0.88,12.84-9.29,14.61-10.41c1.77-1.12,5.18-3.55,3.37-1.66
	c-1.81,1.9-8.42,7.49-10.47,7.86c-2.05,0.37-2.49,0.82-2.82,1.49c-1.85,1.82-3.84,3.49-5.96,4.99c-0.76,0.47,0.74,2.07,1.25,1.84
	c0.51-0.22,4.22-2.93,5.88-3.17c1.66-0.24,1.75-1.17,1.67-1.94c-0.12-1.49,0.88-2.86,2.35-3.17c2.01-0.35,4.09-3,6.44-4.75
	c2.35-1.75,0.56,1.36,2.67-0.29c2.11-1.65,10.93-5.2,13.27-8.31c2.33-3.11,3.86-2.96,3.43-1.92c-0.43,1.04,2.32-1.12,2.57-1.84
	c0.25-0.71-1.25-0.98-0.85-1.25c0.4-0.26,0.53,0.63,1.25,0.16c0.71-0.46,7.84-9.59,8.97-10.14c1.12-0.55,2.71-1.55,1.72-2.49
	s-2.2-3.74-5.47,1.11c-3.27,4.86-5.85,10.8-7.56,10.08s-3.28-0.09-5.12,1.97c-1.84,2.06-6,5.64-6.66,5.25
	c-0.66-0.39-0.39-0.43,1.11-1.66c1.49-1.23,9.46-10.72,12.84-13.55c3.38-2.83,11.35-10.27,11.5-11.68c0.15-1.41,1.94-0.26,1.55,0.8
	c-0.4,1.06-2.93,2.56-1.25,2.59c1.68,0.04,2.04-0.33,1.6,0.94c-0.43,1.29,1.25-1.78,2.78-3.68s8.74-14.74,11.95-19.87
	c3.22-5.14,1.7-4.68,0-6.24c-1.7-1.56,2.67-5.27,3.32-4.75c0.65,0.51-1.53,2.58-0.7,3.1c0.82,0.51,1.9,2.73,2.94,0.91
	c1.04-1.82,1.63-7.4,3.83-8.39c2.2-0.98,4.51-6.64,3.17-7.88c-1.33-1.23,0.65-3.74,1.08-3.67c0.43,0.08-0.96-1.63-2.69-1.49
	c-1.73,0.14,0.76-1.25,1.01-2.23s-6.09-3.55-7.29-1.49c0,0,1.53,4.55-1.46,3.49c-2.99-1.06-0.76-2.04-2.17,1.55
	c-1.41,3.58-0.18,3.74-1.67,3.96c-1.49,0.22-1.25,1.61-1.16,2.42c0.09,0.81-1.75,5.41-2.58,5.13c-0.84-0.29-1.88-0.8-1.97,2.23
	c-0.09,3.03-3.45,7.84-4.9,10.43c-1.46,2.59-7.26,14.13-10.92,17.24s-1.08-2.74-3.41,0c-2.33,2.74-6.9,8.74-11.52,12.1
	c0,0-0.36,0.31,0.08,1.42c0.43,1.11-1,0.63-4.02,3.74c-3.02,3.11-7.7,7.49-9.77,7.29c-2.07-0.19-1.72-0.12-2-0.88
	c-0.27-0.76-2.25,0.85-1.08,1.9c1.17,1.05,0.81-0.88,1.01,0c0.2,0.88,0,3.29-3.35,3.63c-3.35,0.33-1.73-0.25-1.36-0.43
	c0.37-0.18-1.14-0.78-3.18,1.75c-2.04,2.53-6.99,5.43-10.13,7.49c-3.14,2.06-9.48,3.55-11.23,3.02c-1.75-0.53,1.15-1.25-0.12-2.31
	c-1.27-1.06-5.18,0.45-4.86,1.59c0.32,1.14,3.82,0.6,2.49,1.41s-1.49,0.53-1.49,0.53s-0.21-1.43-0.98,0
	c-0.76,1.43-1.25,1.98-1.49,0.98c-0.24-1.01-1.49-2.28-4.08,2.69c-2.58,4.98-20.05,5.08-28.87,2.49c0,0-8.19-1.86-8.11-2.56
	c0.08-0.7,0.65,0.5,0.92-0.24c0.27-0.74-3.38-1.51-5.6-2.39c-2.22-0.88-0.82,1.51-5.54-4.33c0,0-1.6-2.93-2.42-1.08
	c0,0-0.11,0.57,0.78,0.98l0.18,0.08c1.08,0.4-0.86,0.61-2.87-1.17c-2.01-1.78-2.49,0.98-0.63,1.43c0,0,15.05,10.66,27.45,12.48
	c0,0,0.86,0.78-1.98,0.21c-2.84-0.57-9.46-1.49-22.08-6.85c0,0-1.9-1.63-1.51-2.49c0.39-0.86-2.68-2.01-2.58-1.59
	c0.26,0.91,0.78,1.71,1.51,2.31c1.06,0.86,3.96,3.37,2.33,2.49c-1.63-0.88-4-2.13-3.96-1.55c0.02,0.59,2.96,1.91,4.59,3.02
	s0.92-0.29,0.92,0.77c0,1.06,27.76,9.98,33.92,6.74c0,0,0.16-0.45,0.09,0.18c-0.08,0.63,0.74,1.05-1.25,1.05s-6.53,2.33-10.19,0.78
	c0,0-1.08-0.49-1.53-0.2c-0.43,0.29,0.46-1.14-0.91-1.35c0,0-5.86-0.46-6.08-1.16c-0.21-0.7-2.88-1.57-3.35-1.77
	c-0.47-0.2-4.02-0.25-6.15-1.66c-2.76-1.45-5.69-2.52-8.74-3.19c-1.33-0.2,0.3,0.94,0.67,1.25c0.37,0.3,4.35,3,5.86,2.59
	c1.51-0.41,0.88-0.51,1.65,0c0.77,0.51,2.92,0.3,4.99,2.49c2.07,2.2,15.32,8.62,34.93,1.75c1.66-0.36,3.39-0.09,4.86,0.76
	c2.82,1.39,4.31-0.69,3.74-0.94c-0.57-0.25-0.2-0.82,0.16-0.84s0.37-0.84-2.1-0.81c-2.47,0.02-2.71-2.28-1.7-2.49
	c0,0,1.25-0.43,0.76,0.26s-0.14,2.12,1.12,1.33c1.26-0.78,2.78-1.25,2.76,0.6c-0.02,1.84,0,0,1.92,1.25
	c1.92,1.25,3.94,1.08,3.55,2.04c-0.4,0.98-1.25,1.46,0.53,1.32c1.78-0.14,1.25,0.37,2.01,0.65c0,0,17.34,7.29,19.3,6.35
	c1.96-0.94,2.15,0.33,2.97,1.04s-1.46,1.17,0.59,1.97c2.04,0.81,5.76,0.33,9.98,1.7c4.22,1.36,3.04,0.31,4.14,0.24
	c1.1-0.08,7.37,1.14,11.09,0.77s3.82-2.27,8.74-1.47c0,0-1.78,2.15-0.21,1.76s9.45-2.92,12.66-3.25c3.22-0.33,10.86-0.22,11.23-1.43
	s-1.51-0.98-2.62-0.88c-1.11,0.1,0.77-1.25,2.26-1.94c1.49-0.7,3.86-1.65,1.96-2.73s0,0.86-8.39,3.23
	c-8.81,2.54-17.92,3.93-27.09,4.13c-10.38,0.26-9.46-1.43-9.46-1.43s-0.1-0.65,1-0.43c1.1,0.22,16.58,1.8,25.16-2.06
	c8.58-3.86,11.93-5.08,12.39-6.24c0.46-1.16,0.43,0.35-2.49,0.3c-2.92-0.05,1.25-0.64,1.8-1.25c0.55-0.61-20.03,8.37-24.95,5.96
	c-4.93-2.41,12.3,1.59,20.58-7.23c0,0-0.67-0.88-2.01,0.14c-1.33,1.02-5.15,3.35-15.89,4.18c-10.74,0.82-5.19-1.01-9.43-0.84
	c-1.73-0.78-3.59-1.28-5.49-1.46c-2.9-0.26-5.18,0.5-7.02-0.47l-0.14-0.09c0,0-1.39-0.96-1.61-0.21c-0.21,0.75-2.13,3.11,1.01,3.45
	c3.14,0.33,5.72-0.9,7.15-0.35c0.97,0.28,1.87,0.75,2.63,1.39c0.45,0.49,4.58,0.94,5.41,0.45c0.82-0.5,2.94,0.3,1.08,0.74
	c-1.86,0.43-8.52,0-9.01,0.46c-0.49,0.46-14.25-1.84-14.37-3.02c-0.12-1.17,1.45-1.25,2.39-1.25s0.86-0.16,0-1.05
	c-0.86-0.88-0.55-0.69-1.49-0.88S255,304.17,255,304.17z"/>
<path class="st1" d="M151.4,212.9c0,0,2.49-3.59-4-2.04s-3.35,0.92-2.49,2.49c0.85,1.57,0.91,3.58-0.86,2.74s0.46,5.45,1.81,6.88
	s1.25,1.65-0.47,1.25c-1.72-0.4,1.08,2.97,2.8,4.58c1.73,1.61-0.43,2.04-1.61,2.42c-1.18,0.37,1.57,3.45,1.9,3.19
	c0.33-0.25,8.51,18.11,15.07,24.28c6.56,6.17,0,1.06-0.49,2c-0.49,0.94,1.75,3.47,3.08,4.9s5.49,9.22,8.29,9.15
	c2.8-0.06,5.69,8.86,12.99,11.98c7.29,3.12,0.7-0.29,0-1.16c-0.7-0.88,10.72,5.58,11.02,6.94c0.3,1.36-7.21-2.49-6.14-1.25
	c1.08,1.25,24.74,16.11,25.97,15.26c1.22-0.85,0.49-3.39-1.11-2.83c-1.6,0.56-2.11-4.51-19.68-14.23s-20.66-16.22-20.03-17.58
	c0.63-1.36,8.05,8.88,17.54,12.75c9.49,3.86,19.82,11.19,21.95,9.94s-3.41-1.42-4.86-3.51s-19.46-10.88-20.22-13.13
	c-0.76-2.26,16.63,12.8,25.59,10.9c0,0,1.45-0.47-1.08-0.94s-6.24-1.59-5.59-2.15c0.65-0.56,5.51,1.91,5.6,1.25
	s-3.35-2.42-8.56-2.94c-0.65,0.64-1.68,0.7-2.39,0.12c-1.41-0.94-7.26-4.02-7.68-5.72s-4.03-4.99-7.66-7.94
	c-3.63-2.94-0.94-3.55-4.1-5.18c-3.16-1.63-7.15-5.54-7.33-8.39c-0.19-2.84-2.35,0-3.12,0.82c-0.77,0.82-2.16,0.47,1.11,3.55
	c3.27,3.08,6.45,6.06,7.88,6.24c1.42,0.18-1.25,0.35-0.8,1.1c0.94,1.25,2.01,2.39,3.18,3.42c2.04,1.96,5.12,3.64,3.35,4.03
	c-1.77,0.39-1.25-1.55-4.38-3.35c-3.13-1.81-3.21-3.31-4.7-3.59c-1.49-0.29-12.68-10.8-11.41-14.42c0,0-0.4-1.15,0.98-0.43
	c1.39,0.72,2.27,2.35,2.84,1.75s-0.4-1.1-0.41-2.16c-0.01-1.06-8.25-10.83-10.21-15.95c-1.97-5.12-2.39-6.56-3.57-5.78
	c-1.17,0.78-1.73,1.75-2.25,0.92s-1.59-4.63,0.2-2.29c1.78,2.33,2.49-0.12,2.35-1.06c-0.15-0.94-2.49-4.09-2.1-6.98
	c0.4-2.88-0.37-7.06-2.49-7.26c-2.12-0.2,1.33-2.94-1.25-3.03C151.27,212.43,151.4,212.9,151.4,212.9z"/>
<path class="st0" d="M360.35,137.26h21.6c12.15,0,16.63,7.74,16.63,15.86c0,7.82-4.17,16.53-17.46,16.53h-6.14v17.91h-14.62V137.26z
	 M378.63,160.28c4.6,0,6.45-2.66,6.45-6.94c0-4.28-1.78-6.71-6.5-6.71h-3.57v13.65L378.63,160.28L378.63,160.28z"/>
<path class="st0" d="M411.41,137.26h15.33l19.09,50.31h-14.54l-2.76-8.19h-18.9l-2.76,8.19h-14.54L411.41,137.26z M425.46,170.31
	l-6.37-19.96l-6.45,19.96H425.46z"/>
<path class="st0" d="M449.53,137.26h23.87c11.29,0,16.15,6.49,16.15,14.38c0,5.31-2.27,9.29-6.75,11.65c3,1.55,4.6,4.99,6.88,10.99
	l4.99,13.27h-14.46l-2.63-7.49c-3.07-8.63-5.41-13.58-9.39-13.58h-4v21.06h-14.64V137.26z M468.24,158.81
	c4.73,0,7.49-2.37,7.49-6.78c0-4.41-2.57-6.65-7.17-6.65h-4.31v13.44L468.24,158.81L468.24,158.81z"/>
<path class="st0" d="M497.94,137.26h14.68v22.79l16.76-22.79h15.4l-17.07,23.38l17.66,26.93h-17.46l-15.17-23.53h-0.12v23.53h-14.68
	V137.26z"/>
<path class="st0" d="M546.06,171.12c4.06,3.32,7.92,4.99,11.41,4.99c2.71,0,4.17-1.47,4.17-3.47c0-5.45-15.58-6.24-15.58-20.95
	c0-6.35,3.68-15.12,14.8-15.12c4.94-0.03,9.69,1.91,13.19,5.39v13.3c-4.06-4.51-7.29-6.57-10.43-6.57c-2.49,0-4.06,1.33-4.06,3.47
	c0,6.13,16.15,6.78,16.15,21.09c0,7.23-4.23,14.97-15.16,14.97c-5.04,0.12-10.04-1.07-14.48-3.45L546.06,171.12L546.06,171.12z"/>
<path class="st0" d="M633.09,187.56h-6.14l-5.59-14.82h-17.79l-5.27,14.82h-6.14l17.97-50.6h4.23L633.09,187.56z M605.9,166.25
	h13.01l-6.75-18.23L605.9,166.25z"/>
<path class="st0" d="M674.89,187.56h-5.15l-27.98-38.67v38.67h-5.61v-50.31h4.79l28.34,38.95v-38.95h5.65L674.89,187.56z"/>
<path class="st0" d="M682.62,137.26h16.22c15.46,0,22.27,13.27,22.27,25.15c0,12.91-8.41,25.15-22.22,25.15h-16.27V137.26z
	 M688.64,181.04h9.57c13.62,0,16.76-12.48,16.76-18.72c0-10.11-5.34-18.72-17.05-18.72h-9.28V181.04z"/>
<path class="st0" d="M360.15,209.23h16.05l5.66,25.13h0.15l6.09-25.13h12.4l6.45,25.13h0.14l5.31-25.13h16.05l-16.56,55.99h-10.25
	l-7.17-27.75h-0.14l-6.74,27.75h-10.25L360.15,209.23z"/>
<path class="st0" d="M435.69,209.23h17.13v55.99h-17.13V209.23z"/>
<path class="st0" d="M464.36,209.23h17.08v41.96h19.2v14.03h-36.28L464.36,209.23L464.36,209.23z"/>
<path class="st0" d="M507.21,209.23h24.5c18.93,0,26.52,15.76,26.52,28.69c0,12.72-6.81,27.26-23.44,27.26h-27.58V209.23z
	 M528.85,251.92c8.32,0,12.27-4.68,12.27-14.7c0-7.39-2.94-14.7-12.19-14.7h-4.58v29.4H528.85z"/>
<path class="st0" d="M567.99,209.23h17.13v41.96h19.2v14.03h-36.33V209.23z"/>
<path class="st0" d="M610.84,209.23h17.13v55.99h-17.13V209.23z"/>
<path class="st0" d="M639.36,209.23h35.69v11.82h-18.56v10.19h17.46v11.82h-17.46v22.17h-17.13V209.23L639.36,209.23z"/>
<path class="st0" d="M683.71,209.23h36.63v11.82h-19.5v9.9h17.85v11.83h-17.85v10.63h19.79v11.82h-36.92V209.23z"/>
<path class="st0" d="M382.73,292.57c-3.58-3.51-7.04-4.53-9.87-4.53c-3.9,0-6.66,2.11-6.66,5.17c0,8.36,18.19,8.22,18.19,22.06
	c0.21,6.31-4.73,11.59-11.04,11.8c-0.25,0.01-0.49,0.01-0.74,0c-4.27,0.09-8.45-1.34-11.78-4.02v-7.91
	c3.08,4.08,6.98,6.31,11.11,6.31c4.68,0,6.84-3.06,6.84-5.49c0-8.98-18.19-9.98-18.19-21.93c0-7.07,5.06-11.59,12.76-11.59
	c3.37,0.03,6.64,1.1,9.38,3.06L382.73,292.57L382.73,292.57z"/>
<path class="st0" d="M414.86,288.62h-17.83v13.13h17.22v5.61h-17.22v13.51h18.38v5.61h-24.42V283h23.87L414.86,288.62L414.86,288.62
	z"/>
<path class="st0" d="M432.56,283c8.51,0,13.81,4.67,13.81,12.17c0.2,4.7-2.63,9-7.04,10.66c3.83,2.61,6.17,6.62,9.38,12.05
	c1.78,3,2.83,4.45,5.72,8.61h-7.21l-5.55-8.93c-5.55-8.92-8.07-9.98-11.15-9.98h-2.49v18.87h-6.05V283H432.56z M427.99,302.05h3.88
	c6.47,0,8.33-3.45,8.27-7.07c-0.06-4.15-2.37-6.65-8.27-6.65h-3.88V302.05z"/>
<path class="st0" d="M468.96,326.86h-1.25L449.53,283h6.04l12.64,30.54L480.79,283h5.98L468.96,326.86z"/>
<path class="st0" d="M497.49,326.49h-6.08V283h6.04L497.49,326.49z"/>
<path class="st0" d="M542.63,292.7c-5.18-3.12-9.62-4.53-14.48-4.53c-8.95-0.31-16.46,6.7-16.77,15.65c-0.01,0.33-0.02,0.66,0,0.99
	c0,9.76,6.91,16.52,17.03,16.52c5.27-0.16,10.37-1.87,14.68-4.92v6.85c-4.65,2.61-9.9,3.93-15.23,3.83
	c-15.8-0.02-22.71-12.56-22.71-21.71c0-13.27,9.68-22.95,23.07-22.95c4.31,0,8.74,1.08,14.42,3.57L542.63,292.7L542.63,292.7z"/>
<path class="st0" d="M574.34,288.62h-17.82v13.13h17.24v5.61h-17.24v13.51h18.38v5.61h-24.42V283h23.87V288.62z"/>
</svg>
